<svg xmlns="http://www.w3.org/2000/svg" version="1.1" id="Layer_1" x="0" y="0" viewBox="0 0 1080.6 287.8" xml:space="preserve"><style type="text/css" id="style2">.st0{fill-rule:evenodd;clip-rule:evenodd}</style><g id="g710" transform="translate(-67.8 -77.1)" fill="#fff"><path d="m88.6 204.6 68-124.6c1.2-2.5 2.1-2.9 5-2.9H214c3.3 0 4.1 1.7 2.9 4.1l-59.4 108.5.8.8c2.9-1.2 9.9-2.5 17.3-2.5 44.1 0 80.4 33 80.4 84.6 0 56.5-40.8 89.5-94.1 89.5-53.6 0-94.1-33-94.1-88.3.1-23.9 7.6-45.3 20.8-69.2zM162 313.5c22.7 0 37.1-16.1 37.1-38.8 0-23.1-14.4-39.2-37.1-39.2-22.7 0-37.1 16.1-37.1 39.2 0 22.7 14.4 38.8 37.1 38.8z" id="path4" fill="#fff"/><path class="st0" d="m337.3 333.1.2-1.1-.1-.1-.6.5c-.6.4-1.2.7-1.9.9-.4.1-.8.2-1.2.2-.7 0-1.4-.1-2-.4-.6-.2-1.2-.6-1.7-1.1-.5-.6-.8-1.3-1-2-.3-.9-.4-1.8-.4-2.8 0-.9.1-1.9.4-2.8.2-.7.6-1.4 1.1-1.9.4-.5 1-.9 1.6-1.1.6-.2 1.3-.4 2-.4.4 0 .8.1 1.2.2.4.1.7.3 1 .5.3.2.5.4.8.6.2.2.4.3.5.5h.1c0-.2 0-.5.1-.8 0-.3.1-.5.2-.7-.6-.3-1.2-.5-1.8-.6a8.33 8.33 0 0 0-5 .2c-.8.3-1.6.7-2.2 1.4-.6.6-1.1 1.4-1.4 2.2-.3.9-.5 1.9-.5 2.9s.2 2 .5 3c.3.8.8 1.5 1.4 2.2.6.6 1.3 1.1 2.1 1.3.9.3 1.8.4 2.7.4.4 0 .9 0 1.3-.1s.8-.2 1.1-.3l.9-.3c.3-.3.5-.4.6-.5z" id="path6" fill="#fff"/><path class="st0" d="M350.5 334.1h.3v-8.6c0-.6 0-1.3.1-1.9.1-.6.1-1.2.1-1.8 0-.6.1-1 .1-1.3-.2.1-.4.1-.6.1-.2 0-.4 0-.6-.1.1 1.1.1 2.4.1 3.6v6.6c-.6-.6-1.2-1.3-2-2.1s-1.5-1.8-2.4-2.7c-.9-.9-1.7-1.9-2.5-2.9s-1.6-1.9-2.4-2.8h-.3v8.4c0 .6 0 1.1-.1 1.7-.1.6 0 1.1-.1 1.6s0 .9-.1 1.2c-.1.3 0 .6-.1.7h1.3v-10.5l4.8 5.4c1.6 1.8 2.9 3.7 4.4 5.4z" id="path8" fill="#fff"/><path class="st0" d="M364.6 333.9h-2c-.1-.3-.2-.7-.4-1.1-.2-.4-.3-.9-.5-1.3s-.3-.9-.5-1.4l-.5-1.4h-4.6c-.4 1-.8 2-1.1 2.9-.3.9-.6 1.6-.7 2.3-.5-.1-.9-.1-1.4 0 1-2.3 2-4.5 2.9-6.8.9-2.2 1.9-4.5 2.9-6.8h.3c.3.7.6 1.6 1 2.4.4.8.7 1.8 1 2.6.3.8.7 1.8 1.1 2.7.4.9.7 1.7 1 2.5.3.8.6 1.4.9 2 .3.6.4 1 .6 1.4zm-8.2-6h4l-2-4.9z" id="path10" fill="#fff"/><path id="rect12" fill="#fff" d="M365.7 328.7h4.6v1.2h-4.6z"/><path class="st0" d="m382.4 333.1.2-1.1-.1-.1-.6.5c-.3.2-.6.4-.9.5-.3.2-.7.3-1 .4-.4.1-.8.2-1.2.2-.7 0-1.4-.1-2-.4-.6-.2-1.2-.6-1.6-1.1-.5-.6-.9-1.2-1.1-2-.3-.9-.4-1.8-.4-2.8 0-.9.1-1.9.4-2.8.2-.7.6-1.4 1.1-1.9.4-.5 1-.9 1.6-1.1.6-.2 1.3-.4 2-.4.4 0 .8.1 1.2.2.3.1.7.3 1 .5.3.2.5.4.8.6.2.2.4.3.5.5h.1l.1-.8c0-.3.1-.5.2-.7-.6-.3-1.2-.5-1.8-.6a8.33 8.33 0 0 0-5 .2c-.8.3-1.6.8-2.2 1.4-.6.6-1.1 1.4-1.4 2.2-.3.9-.5 1.9-.5 2.9s.2 2 .5 3c.3.8.8 1.5 1.4 2.2.6.6 1.3 1.1 2.1 1.3.9.3 1.8.4 2.7.4.4 0 .9 0 1.3-.1s.8-.2 1.1-.3l.9-.3c.2-.3.4-.4.6-.5z" id="path14" fill="#fff"/><path class="st0" d="M384.9 324.8v8.9h1.6c0-.3 0-.7-.1-1.1-.1-.4 0-.9 0-1.4v-2.7c0-.8.2-1.6.6-2.4.5-.6 1.2-.9 1.9-.8.6 0 1.1.3 1.5.8.4.7.6 1.4.5 2.2v1.2c0 .8 0 1.5-.1 2.2 0 .7 0 1.4-.1 2.1h1.6v-6.1c0-.6-.1-1.1-.3-1.6-.3-.8-.9-1.3-1.6-1.6-.3-.1-.7-.1-1-.1-.6 0-1.2.1-1.7.5-.5.3-.9.8-1.2 1.3v-5.8c0-.4 0-.8.1-1.2-.3.1-.6.1-.8.1-.3 0-.5 0-.8-.1v4.1c0 .5-.1 1.1-.1 1.5z" id="path16" fill="#fff"/><path class="st0" d="M395.4 328.3v3.8c0 .6 0 1.2-.1 1.7h1.6c-.1-.5-.1-1.1-.1-1.7v-5.6c0-.6.1-1.2.1-1.8-.5.1-1.1.1-1.7 0 .1.6.1 1.2.1 1.8.1.6.1 1.2.1 1.8zm-.2-7c0 .3.1.5.3.7.2.2.4.3.7.3.3 0 .5-.1.7-.3.2-.2.3-.4.3-.7 0-.3-.1-.5-.3-.7a.9.9 0 0 0-.7-.3c-.2 0-.5.1-.7.3-.2.2-.3.4-.3.7z" id="path18" fill="#fff"/><path class="st0" d="M400.6 324.8v7.8c0 .4 0 .8-.1 1.1h1.6c0-.3 0-.7-.1-1.1-.1-.4 0-.9 0-1.4v-10.8c0-.4 0-.9.1-1.2-.3.1-.5.1-.8.1-.3 0-.6 0-.8-.1 0 .3 0 .7.1 1.2s0 .9 0 1.4v3z" id="path20" fill="#fff"/><path class="st0" d="M404.4 329.6c0 .6.1 1.2.3 1.8.2.5.5 1 .9 1.5.4.4.9.7 1.4.9.6.2 1.2.3 1.8.3.6 0 1.2-.1 1.7-.3.5-.2 1-.5 1.4-.8l.1-1-.1-.1c-.2.2-.4.4-.6.5-.2.2-.4.3-.7.4-.2.1-.5.2-.8.3-.2.1-.5.1-.8.1-.5 0-.9-.1-1.4-.3-.4-.2-.7-.4-1-.8-.3-.3-.5-.7-.6-1.1-.1-.5-.2-.9-.2-1.4v-.5h6.4v-.8c0-.5-.1-1-.2-1.5s-.4-.9-.7-1.2c-.3-.4-.7-.7-1.2-.9-.5-.2-1.1-.3-1.7-.3-1.2-.1-2.4.4-3.1 1.4a7.9 7.9 0 0 0-.9 3.8zm4.3-4.5c.4 0 .8.1 1.2.3.3.2.5.5.7.8.2.3.3.7.3 1.1.1.4.1.7.1 1.1h-4.8c0-.4.1-.7.2-1.1.1-.4.3-.7.5-1.1.2-.3.5-.6.8-.8.2-.2.6-.3 1-.3z" id="path22" fill="#fff"/><path class="st0" d="m307.7 312.2-.1 2.3h1.6v-12.7c0-1.1 0-2.2.1-3.2s.1-1.7.1-2.2l-.5.1h-.9l-.5-.1v8.9c-.4-1.4-1.7-2.5-3.2-2.4-.6 0-1.1.1-1.6.4-.6.3-1 .7-1.4 1.1-.4.6-.8 1.2-1 1.9-.3.9-.4 1.8-.4 2.7 0 .9.1 1.8.4 2.7.2.7.5 1.3 1 1.9.4.4.8.8 1.3 1 .5.2 1 .3 1.5.3s.9-.1 1.3-.2c.4-.2.7-.4 1-.6.3-.2.5-.5.7-.8.2-.6.4-.8.6-1.1zm-5.9-3.2c0-.7.1-1.3.2-2 .1-.6.3-1.1.5-1.7.2-.4.5-.8.9-1.1.4-.3.8-.4 1.3-.4.9 0 1.8.4 2.2 1.2.6 1.1.8 2.3.8 3.5 0 .7-.1 1.3-.2 2-.1.6-.3 1.2-.5 1.7s-.6.9-1 1.2c-.4.3-.9.5-1.4.5-.3 0-.7-.1-1-.2-.4-.2-.7-.4-.9-.8-.3-.5-.5-1-.7-1.5-.2-.7-.2-1.6-.2-2.4z" id="path24" fill="#fff"/><path class="st0" d="M311.3 309.1c0 .8.1 1.5.4 2.2a4.81 4.81 0 0 0 2.6 3c.6.3 1.3.4 2 .4s1.3-.1 1.9-.4c.6-.2 1.1-.6 1.5-1l.1-1.2-.1-.1c-.2.3-.4.5-.6.7-.2.2-.5.4-.8.6-.3.1-.5.3-.8.4-.3.1-.6.1-.8.1-.5 0-1.1-.1-1.5-.3-.4-.2-.8-.6-1.1-.9-.3-.4-.6-.9-.7-1.4-.1-.6-.2-1.2-.2-1.8v-.8l1.3-.1h3.6l2.2.1v-1c0-.6-.1-1.3-.3-1.9-.1-.6-.4-1.1-.8-1.6s-.8-.8-1.3-1.1c-.6-.3-1.2-.4-1.9-.4-1.4-.1-2.7.6-3.5 1.7-1 1.6-1.3 3.2-1.2 4.8zm4.7-5.6c.5 0 .9.1 1.3.4.3.3.6.6.8 1 .2.4.3.9.4 1.4.1.5.1.9.1 1.4h-5.5c0-.5.1-.9.2-1.4.1-.5.3-.9.5-1.4.2-.4.5-.7.9-1 .4-.2.8-.4 1.3-.4z" id="path26" fill="#fff"/><path class="st0" d="M340 314.5h-2.2c-.1-.4-.2-.8-.4-1.3s-.4-1.1-.5-1.6c-.1-.5-.4-1.2-.6-1.7-.2-.5-.4-1.2-.6-1.7h-5.3c-.4 1.3-.8 2.5-1.2 3.6-.4 1.1-.6 2.1-.8 2.8-.5-.1-1-.1-1.5 0 1.1-2.8 2.2-5.6 3.2-8.4 1-2.8 2.1-5.6 3.2-8.5h.4c.3.9.7 2 1.1 3.1l1.2 3.3 1.2 3.3c.4 1.1.8 2.1 1.1 3.1.3 1 .7 1.8 1 2.5.3.7.5 1.1.7 1.5zm-9.2-7.5h4.4l-2.3-6.2z" id="path28" fill="#fff"/><path class="st0" d="M341.2 308.8c0 .9.1 1.9.4 2.8.3.7.7 1.3 1.2 1.9.5.4 1 .8 1.6 1 .6.2 1.2.3 1.8.3.7 0 1.3-.1 1.9-.4.6-.2 1.1-.6 1.5-1 0-.4.1-.8.1-1.2l-.1-.1c-.2.3-.4.5-.6.7-.2.2-.5.4-.8.6-.3.1-.6.3-.9.4-1.3.4-2.7-.1-3.5-1.1-.7-1.1-1-2.5-.9-3.8 0-.7.1-1.4.2-2.1.1-.6.3-1.2.6-1.7.3-.4.6-.8 1.1-1.1.5-.3 1-.4 1.6-.4.3 0 .6.1.9.2.3.1.5.3.7.5l.6.6c.2.2.3.4.4.6h.2c0-.3.1-.6.2-.8.1-.2.2-.5.3-.8-.4-.3-.8-.6-1.3-.7-.6-.2-1.3-.3-2-.3s-1.3.1-1.9.4c-.6.2-1.2.6-1.7 1.1a5.95 5.95 0 0 0-1.6 4.4z" id="path30" fill="#fff"/><path class="st0" d="m356.9 305 .1-.1v-1.1c0-.3 0-.6.1-.9-.1-.1-.2-.1-.3-.1h-.3c-1 0-1.9.9-2.7 2.6v-1c0-.3 0-.8.1-1.4l-.4.1h-.8l-.4-.1c0 1.1.1 2 .1 2.8v6.5c0 1 0 1.7-.1 2.2h1.7c0-.4-.1-.8-.1-1.4V308c0-.4 0-.9.1-1.3s.2-.7.4-1.1c.2-.3.4-.5.6-.7.3-.2.6-.3.9-.3.2 0 .4 0 .6.1.2.1.3.2.4.3z" id="path32" fill="#fff"/><path class="st0" d="M358.2 309.1c0 .8.1 1.5.3 2.2a4.81 4.81 0 0 0 2.6 3c.6.3 1.3.4 2 .4s1.3-.1 1.9-.4c.6-.2 1.1-.6 1.5-1l.1-1.2-.1-.1c-.2.3-.4.5-.6.7-.5.4-1 .7-1.6.9-.3.1-.6.1-.8.1-.5 0-1-.1-1.5-.3-.4-.2-.8-.6-1.1-.9-.3-.4-.6-.9-.7-1.4-.1-.6-.2-1.2-.2-1.8v-.7l1.3-.1h3.6l2.2.1v-1a6.28 6.28 0 0 0-1.1-3.5c-.4-.5-.8-.8-1.3-1.1-.6-.3-1.2-.4-1.9-.4-1.4-.1-2.7.6-3.5 1.7-.9 1.6-1.2 3.2-1.1 4.8zm4.8-5.6c.5 0 .9.1 1.3.4.3.3.6.6.8 1 .2.4.3.9.4 1.4.1.5.1.9.1 1.4h-5.5c0-.5.1-.9.2-1.4.1-.5.3-.9.5-1.4.2-.4.5-.7.9-1 .3-.3.8-.4 1.3-.4z" id="path34" fill="#fff"/><path class="st0" d="m376.3 312.2-.1 2.3h1.6v-12.7c0-1.1.1-2.2.1-3.2s.1-1.7.1-2.2l-.5.1h-.9l-.5-.1v8.9c-.4-1.4-1.7-2.5-3.2-2.4-.6 0-1.1.1-1.6.4-.6.3-1 .7-1.4 1.1-.4.6-.8 1.2-1 1.9-.3.9-.4 1.8-.4 2.7 0 .9.1 1.8.4 2.7.2.7.5 1.3 1 1.9.4.4.8.8 1.3 1 .5.2 1 .3 1.5.3s.9-.1 1.3-.2c.4-.2.7-.4 1-.6.3-.2.5-.5.7-.8.3-.6.5-.8.6-1.1zm-5.9-3.2c0-.7.1-1.3.2-2 .1-.6.3-1.1.5-1.7.2-.4.5-.8.9-1.1.4-.3.8-.4 1.3-.4.9 0 1.8.4 2.2 1.2.6 1.1.8 2.3.8 3.5 0 .7-.1 1.3-.2 2-.1.6-.3 1.2-.6 1.7-.2.5-.5.9-1 1.2-.4.3-.9.5-1.4.5-.3 0-.7-.1-1-.2-.4-.2-.7-.4-.9-.8-.3-.5-.5-1-.6-1.5-.1-.8-.2-1.6-.2-2.4z" id="path36" fill="#fff"/><path class="st0" d="M381.3 307.5v4.8c0 .8-.1 1.5-.1 2.2h1.8c-.1-.6-.1-1.4-.1-2.2v-7.1c0-.8.1-1.6.1-2.3-.3.1-.6.1-.9.1-.3 0-.6-.1-.9-.1.1.7.1 1.5.1 2.3v2.3zm-.3-8.7c0 .3.1.6.3.9.2.2.5.4.7.4.3 0 .6-.1.7-.4.4-.5.4-1.2 0-1.7-.2-.2-.5-.4-.7-.4-.3 0-.6.1-.7.4-.2.1-.3.4-.3.8z" id="path38" fill="#fff"/><path class="st0" d="m388.3 299.7-1.7.9v2.7c-.3 0-.7 0-1.4-.1v1h1.5v2.5c0 .8 0 1.4-.1 2-.1.6 0 1.1 0 1.7v1.4c-.1.8.2 1.6.6 2.2.5.5 1.2.8 1.9.8.3 0 .5 0 .8-.1l.8-.2v-.6c-.2.1-.3.1-.5.1h-.4c-.3 0-.7-.1-.9-.3-.2-.2-.4-.5-.5-.8-.1-.4-.2-.8-.2-1.2v-6.6c0-.3 0-.5.1-.8h2.2v-1c-.5 0-.9.1-1.3.1h-.8l.1-1.8c-.3-.7-.2-1.3-.2-1.9z" id="path40" fill="#fff"/><path class="st0" d="M392.5 304.1v1.3h.2c.2-.5.6-.9 1.1-1.2.5-.3 1-.4 1.5-.4.4 0 .7.1 1 .3.3.2.5.4.7.6.2.3.3.6.4 1 .1.4.1.8.1 1.2 0 .2 0 .4-.1.6-.1.2-.2.3-.4.4-.3.1-.6.3-.9.3-.4.1-1 .2-1.7.4-.8.1-1.6.5-2.1 1.1-1.1 1.3-1.1 3.2.1 4.4.2.3.5.4.9.6.3.1.7.2 1 .2.6 0 1.2-.1 1.8-.4.6-.3 1.1-.8 1.5-1.3 0 .4.2.7.4 1 .3.3.6.4 1 .4.2 0 .5 0 .7-.1.2 0 .4-.1.6-.2v-.5c-.1.1-.1.1-.2.1h-.2c-.2 0-.3 0-.5-.2-.1-.1-.2-.3-.2-.4-.1-.2-.1-.4-.1-.6v-6.4c0-.5-.1-1-.2-1.5-.1-.4-.4-.8-.7-1.1-.3-.3-.6-.6-1-.7-.4-.2-.9-.3-1.4-.3-.6 0-1.1.1-1.6.3-.7.3-1.3.7-1.7 1.1zm5 4.4-.1 3.6c-.2.5-.6.9-1 1.2-.4.3-.9.5-1.4.5-.5 0-.9-.2-1.2-.6-.4-.5-.6-1.1-.6-1.7 0-.4.1-.8.2-1.1.1-.3.3-.5.6-.7.3-.2.5-.3.8-.5l.9-.3c.3-.1.6-.2.9-.2.4-.1.7-.1.9-.2z" id="path42" fill="#fff"/><path class="st0" d="M401.8 308.8c0 .9.1 1.9.4 2.8.3.7.7 1.3 1.2 1.9.5.4 1 .8 1.6 1 .6.2 1.2.3 1.8.3.7 0 1.3-.1 1.9-.4.6-.2 1.1-.6 1.5-1 0-.4.1-.8.1-1.2l-.1-.1c-.2.3-.4.5-.6.7-.2.2-.5.4-.8.6-.3.1-.6.3-.9.4-.3.1-.6.1-.8.1-1 .1-2-.4-2.7-1.3-.7-1.1-1-2.5-.9-3.8 0-.7.1-1.4.2-2.1.1-.6.3-1.1.6-1.7.3-.4.6-.8 1.1-1.1.5-.3 1-.4 1.6-.4.3 0 .6.1.9.2.3.1.5.3.7.5l.6.6c.2.2.3.4.4.6h.2c0-.3.1-.6.2-.8.1-.2.2-.5.3-.8-.4-.3-.8-.6-1.3-.7-.6-.2-1.3-.3-2-.3s-1.3.1-1.9.4c-.6.2-1.2.6-1.7 1.1-.5.5-.9 1.2-1.2 1.9-.2.7-.4 1.6-.4 2.6z" id="path44" fill="#fff"/><path class="st0" d="M413.4 307.5v4.8c0 .8 0 1.5-.1 2.2h1.8c-.1-.6-.1-1.4-.1-2.2v-7.1c0-.8.1-1.6.1-2.3-.6.2-1.2.2-1.9 0 .1.7.1 1.5.1 2.3 0 .8.1 1.6.1 2.3zm-.3-8.7c0 .3.1.6.3.9.4.4 1 .4 1.4.1l.1-.1c.4-.5.4-1.2 0-1.7-.3-.4-.9-.5-1.3-.2-.1 0-.1.1-.2.2-.2.1-.3.4-.3.8z" id="path46" fill="#fff"/><path class="st0" d="M417.7 308.8c0 1 .1 1.9.4 2.8.3.7.7 1.3 1.2 1.9.4.5 1 .8 1.6 1a5.66 5.66 0 0 0 3.6 0c.6-.2 1.2-.5 1.6-1 .5-.5.9-1.2 1.2-1.9.3-.9.5-1.9.5-2.8 0-.9-.1-1.9-.5-2.8-.2-.7-.6-1.3-1.2-1.9-.4-.5-1-.8-1.6-1a5.66 5.66 0 0 0-3.6 0c-.6.2-1.2.6-1.6 1-.5.5-.9 1.2-1.2 1.9-.3.9-.4 1.8-.4 2.8zm1.8 0c0-.7 0-1.3.1-2 .1-.6.3-1.1.5-1.7a2.73 2.73 0 0 1 5 0c.3.5.4 1.1.5 1.7.2 1.3.2 2.6 0 3.9-.1.6-.3 1.2-.5 1.7s-.6.9-1 1.2a2.73 2.73 0 0 1-4-1.2c-.3-.5-.4-1.1-.5-1.7 0-.6-.1-1.3-.1-1.9zm4.9-11.5-3 3.6h.9l3-2.3c.2-.1.3-.3.5-.4.2-.2.3-.4.2-.7 0-.2-.1-.4-.2-.6-.1-.1-.3-.2-.4-.2-.5.1-.8.3-1 .6z" id="path48" fill="#fff"/><path class="st0" d="M436.7 307.7v1.5c0 .9 0 1.9-.1 2.7-.1.8-.1 1.8-.1 2.6h1.8v-7.6c0-.7-.1-1.4-.3-2.1-.2-.5-.4-.9-.8-1.3-.3-.3-.7-.5-1.1-.7-.4-.1-.8-.2-1.2-.2-.7 0-1.4.2-1.9.6-.6.4-1 1-1.4 1.6 0-.6 0-1.3.1-1.9l-.5.1h-.3c-.3 0-.6 0-.9-.1.1.7.1 1.5.1 2.3v7.1c0 .8-.1 1.5-.1 2.2h1.8c-.1-.6-.1-1.4-.1-2.2V308a5 5 0 0 1 .7-2.9c.5-.7 1.3-1.1 2.1-1 .7 0 1.3.4 1.6 1 .5.7.7 1.6.6 2.6z" id="path50" fill="#fff"/><path class="st0" d="m296.9 292.5.2-1.4-.1-.1c-.2.2-.4.4-.7.6-.3.2-.6.5-1 .6-.4.2-.8.4-1.1.5-.4.1-.9.2-1.4.2-.8 0-1.6-.1-2.3-.5-.7-.3-1.3-.8-1.8-1.4-.5-.7-1-1.5-1.2-2.4-.3-1.1-.4-2.3-.4-3.5 0-1.2.1-2.3.4-3.5.2-.9.6-1.7 1.2-2.4.5-.6 1.1-1.1 1.8-1.4.7-.3 1.5-.5 2.3-.5.5 0 .9.1 1.4.2.4.1.8.3 1.1.6.3.2.6.4.9.7l.6.6h.1c0-.3.1-.6.2-1 0-.3.1-.6.3-.9-.6-.3-1.3-.6-2-.8-.8-.2-1.6-.4-2.5-.3-1.1 0-2.1.2-3.1.6a7.44 7.44 0 0 0-4 4.4c-.4 1.2-.6 2.4-.5 3.7 0 1.2.2 2.5.5 3.7a7.44 7.44 0 0 0 4 4.4c1 .4 2 .5 3 .5.5 0 1 0 1.5-.1s.9-.2 1.2-.3c.3-.1.7-.2 1-.4 0-.1.2-.2.4-.4z" id="path52" fill="#fff"/><path class="st0" d="M298.6 287.8c0 1 .1 1.9.4 2.8.3.7.7 1.3 1.2 1.9.5.5 1 .8 1.6 1a5.66 5.66 0 0 0 3.6 0c.6-.2 1.2-.5 1.6-1 .5-.5.9-1.2 1.1-1.9.3-.9.5-1.9.5-2.8 0-.9-.1-1.9-.5-2.8-.2-.7-.6-1.3-1.1-1.9-.4-.5-1-.8-1.6-1a5.66 5.66 0 0 0-3.6 0c-.6.2-1.2.6-1.6 1-.5.5-.9 1.2-1.2 1.9-.2.9-.4 1.8-.4 2.8zm1.8 0c0-.7 0-1.3.1-2 .1-.6.3-1.1.5-1.7a2.73 2.73 0 0 1 5 0c.3.5.4 1.1.5 1.7.2 1.3.2 2.6 0 3.9-.1.6-.3 1.2-.5 1.7s-.6.9-1 1.2a2.73 2.73 0 0 1-4-1.2c-.3-.5-.4-1.1-.5-1.7 0-.6-.1-1.3-.1-1.9z" id="path54" fill="#fff"/><path class="st0" d="M310.9 286.5v4.8c0 .8-.1 1.5-.1 2.1h1.8c-.1-.6-.1-1.4-.1-2.1V287c-.1-1 .2-2 .6-2.9.4-.7 1.2-1.1 2-1 .4 0 .7.1 1 .3.3.2.6.5.7.8.1.2.1.3.2.5s.1.4.1.6c0 .3.1.7 0 1v4.5c0 .9-.1 1.8-.1 2.7h1.8c0-.7 0-1.3-.1-1.9-.1-.6 0-1.2 0-1.9V287c0-.7 0-1.2.1-1.5 0-.3.1-.6.1-.8.1-.2.2-.4.3-.5.2-.3.5-.6.8-.8.4-.2.8-.4 1.3-.3.3 0 .7.1 1 .2.3.1.5.3.7.6.2.3.3.6.4.9.1.4.1.8.1 1.1 0 2.2 0 3.9-.1 5.1-.1 1.2-.1 2-.1 2.4h1.8c0-.5 0-.9-.1-1.3v-6.7c0-.6-.1-1.2-.2-1.8-.1-.4-.4-.8-.7-1.2-.3-.3-.6-.5-1-.7-.4-.1-.8-.2-1.2-.2-.7 0-1.4.2-2 .6-.6.5-1.1 1.1-1.3 1.8-.1-.3-.2-.7-.4-1-.2-.3-.4-.6-.7-.8-.3-.2-.6-.4-.9-.5-.3-.1-.7-.2-1-.2-1.4 0-2.6.9-3.1 2.2 0-.6 0-1.3.1-1.9l-.5.1h-.4c-.3 0-.6 0-.9-.1.1.7.1 1.5.1 2.3v2.5z" id="path56" fill="#fff"/><path class="st0" d="M328.5 286.5v4.8c0 .8-.1 1.5-.1 2.1h1.8c-.1-.6-.1-1.4-.1-2.1v-7.1c0-.8.1-1.6.1-2.3-.3.1-.6.1-.9.1-.3 0-.6 0-.9-.1.1.7.1 1.5.1 2.3v2.3zm-.3-8.7c0 .3.1.6.3.9.2.2.5.4.7.4.3 0 .6-.1.8-.4.2-.2.3-.6.3-.9 0-.3-.1-.6-.3-.9-.2-.2-.5-.4-.8-.4-.3 0-.6.1-.7.4-.2.2-.3.5-.3.9z" id="path58" fill="#fff"/><path class="st0" d="M333.5 291.2h-.2c0 .3-.1.6-.1.9-.1.3-.1.6-.2.8.3.2.7.4 1.1.5.5.2 1 .2 1.6.2.5 0 1.1-.1 1.5-.3.9-.4 1.6-1.2 1.9-2.1.2-.4.3-.9.3-1.4 0-.6-.1-1.1-.4-1.6-.2-.4-.5-.7-.9-.9-.4-.2-.8-.4-1.2-.5-.4-.1-.8-.3-1.2-.4-.3-.2-.7-.4-.9-.6-.3-.4-.4-.8-.4-1.2 0-.3 0-.6.2-.9.1-.2.2-.4.4-.6.2-.2.3-.3.6-.4.2-.1.4-.1.6-.1.4 0 .9.2 1.2.5.3.3.5.6.6 1h.2c0-.3.1-.6.2-.8l.3-.9c-.3-.1-.6-.3-1-.4-.4-.2-.8-.3-1.3-.2-.5 0-1 .1-1.5.3-.4.2-.8.4-1.1.7-.3.3-.5.7-.7 1.2-.1.5-.2 1-.2 1.5 0 .6.1 1.1.4 1.6.2.4.5.7.9 1 .4.2.8.4 1.2.5.4.1.8.3 1.2.5.3.1.6.4.9.6.3.3.4.7.4 1.1 0 .3-.1.6-.2 1-.1.3-.3.5-.5.7-.2.2-.4.3-.6.4-.2.1-.5.1-.7.1-.3 0-.6-.1-.8-.2-.2-.1-.5-.3-.7-.4l-.5-.5c-.2-.3-.3-.5-.4-.7z" id="path60" fill="#fff"/><path class="st0" d="M342.1 286.5v4.8c0 .8-.1 1.5-.1 2.1h1.8c-.1-.6-.1-1.4-.1-2.1v-7.1c0-.8.1-1.6.1-2.3-.6.2-1.2.2-1.9 0 .1.7.1 1.5.1 2.3 0 .8.1 1.6.1 2.3zm-.3-8.7c0 .3.1.6.3.9.4.4 1 .4 1.4.1l.1-.1c.2-.2.3-.6.3-.9 0-.3-.1-.6-.3-.9-.4-.4-1-.4-1.4-.1l-.1.1c-.2.2-.3.5-.3.9z" id="path62" fill="#fff"/><path class="st0" d="M346.4 287.8c0 1 .1 1.9.4 2.8.3.7.7 1.3 1.2 1.9.4.5 1 .8 1.6 1a5.66 5.66 0 0 0 3.6 0c.6-.2 1.2-.5 1.6-1 .5-.5.9-1.2 1.1-1.9.3-.9.5-1.9.5-2.8 0-.9-.1-1.9-.5-2.8-.2-.7-.6-1.3-1.1-1.9-.4-.5-1-.8-1.6-1a5.66 5.66 0 0 0-3.6 0c-.6.2-1.2.6-1.6 1a6.15 6.15 0 0 0-1.6 4.7zm1.8 0c0-.7 0-1.3.1-2 .1-.6.3-1.1.5-1.7a2.73 2.73 0 0 1 5 0c.3.5.4 1.1.5 1.7.2 1.3.2 2.6 0 3.9-.1.6-.3 1.2-.5 1.7s-.6.9-1 1.2a2.73 2.73 0 0 1-4-1.2c-.3-.5-.4-1.1-.5-1.7-.1-.6-.1-1.3-.1-1.9zm4.8-11.5-3 3.6h.9l3-2.3c.2-.1.3-.3.5-.4.2-.2.3-.4.2-.7 0-.2-.1-.4-.2-.6-.1-.1-.3-.2-.4-.2-.5.1-.8.3-1 .6z" id="path64" fill="#fff"/><path class="st0" d="M365.3 286.7v1.5c0 .9 0 1.9-.1 2.7-.1.8-.1 1.8-.1 2.6h1.8V286c0-.7-.1-1.4-.3-2.1-.2-.5-.4-.9-.8-1.3-.3-.3-.7-.5-1.1-.7-.4-.1-.8-.2-1.2-.2-.7 0-1.4.2-1.9.6-.6.4-1 1-1.4 1.6 0-.6 0-1.3.1-1.9l-.5.1h-.3c-.3 0-.6 0-.9-.1.1.8.1 1.5.1 2.3v7.1c0 .7 0 1.4-.1 2.1h1.8c-.1-.6-.1-1.4-.1-2.1v-4.3a5 5 0 0 1 .7-2.9c.5-.7 1.3-1.1 2.1-1 .7 0 1.3.4 1.6 1 .5.6.7 1.5.6 2.5z" id="path66" fill="#fff"/><path class="st0" d="M387.6 293.8h.3v-10.7c0-.8.1-1.6.1-2.4 0-.8.1-1.6.1-2.3 0-.7.1-1.2.1-1.6-.2.1-.4.1-.7.1-.2 0-.5 0-.7-.1.1 1.4.1 2.9.1 4.6v8.2c-.6-.7-1.4-1.6-2.2-2.7-.8-1.1-1.7-2.2-2.7-3.4-1-1.2-1.9-2.4-2.9-3.6-1-1.2-1.8-2.4-2.7-3.4h-.3v8.3c0 .7 0 1.4-.1 2.1-.1.7 0 1.4-.1 2.1-.1.7 0 1.4-.1 2-.1.6-.1 1.1-.1 1.5 0 .4-.1.7-.1.9h1.5v-13.1c1.8 2.2 3.6 4.5 5.4 6.7 1.8 2.5 3.5 4.6 5.1 6.8z" id="path68" fill="#fff"/><path class="st0" d="M391.7 283.1v1.3h.2c.2-.5.6-.9 1-1.2.5-.3 1-.4 1.5-.4.4 0 .7.1 1 .3.3.2.5.4.7.6.2.3.3.6.4 1 .1.4.1.8.1 1.2 0 .2 0 .4-.1.6-.1.2-.2.3-.4.4-.3.1-.6.3-.9.3-.4.1-1 .2-1.7.4-.8.1-1.6.5-2.1 1.1-.5.6-.8 1.4-.8 2.2 0 .4.1.9.2 1.3.2.3.4.7.6.9.2.2.5.4.9.6.3.1.7.2 1 .2.6 0 1.2-.1 1.8-.4.6-.3 1-.8 1.5-1.3 0 .4.2.7.4 1 .3.3.6.4 1 .4.2 0 .5 0 .7-.1.2 0 .4-.1.6-.2v-.5c-.1 0-.1.1-.2.1h-.2c-.2 0-.3-.1-.5-.2-.1-.1-.2-.3-.2-.4-.1-.2-.1-.4-.1-.6v-6.4c0-.5-.1-1-.2-1.5-.1-.4-.4-.8-.7-1.1-.3-.3-.6-.6-1-.7-.4-.2-.9-.3-1.4-.3-.5 0-1.1.1-1.6.3-.5.3-1 .7-1.5 1.1zm5.1 4.4-.1 3.6c-.2.5-.6.9-1 1.2-.4.3-.9.5-1.4.5-.5 0-.9-.2-1.2-.6-.4-.5-.6-1.1-.6-1.7 0-.4.1-.8.2-1.1.1-.3.3-.5.6-.7.3-.2.5-.3.8-.5.3-.1.6-.2 1-.3.3-.1.6-.2.9-.2.3-.1.5-.1.8-.2z" id="path70" fill="#fff"/><path class="st0" d="M401 287.8c0 .9.1 1.9.4 2.8.3.7.7 1.3 1.2 1.9.5.4 1 .8 1.6 1 .6.2 1.2.3 1.8.3.7 0 1.3-.1 1.9-.4.6-.2 1.1-.6 1.5-1 0-.4.1-.8.1-1.2l-.1-.1c-.2.3-.4.5-.6.7-.2.2-.5.4-.8.6-.3.1-.6.3-.8.4-.3.1-.6.1-.9.1-1 .1-2-.4-2.6-1.3-.7-1.1-1-2.5-.9-3.8 0-.7.1-1.4.2-2 .1-.6.3-1.2.6-1.7.3-.4.6-.8 1.1-1.1.5-.3 1-.4 1.6-.4.3 0 .6.1.9.2.3.1.5.3.7.5l.6.6c.2.2.3.4.4.6h.2c0-.3.1-.5.2-.8.1-.3.2-.5.3-.8-.4-.3-.8-.6-1.3-.7-.6-.2-1.3-.4-2-.3-.7 0-1.3.1-1.9.4-.6.2-1.2.6-1.7 1.1-.5.5-.9 1.2-1.2 1.9-.4.6-.5 1.5-.5 2.5z" id="path72" fill="#fff"/><path class="st0" d="M412.5 286.5v4.8c0 .8 0 1.5-.1 2.1h1.8c-.1-.6-.1-1.4-.1-2.1v-7.1c0-.8.1-1.6.1-2.3-.6.2-1.2.2-1.9 0 .1.7.1 1.5.1 2.3 0 .8.1 1.6.1 2.3zm-.3-8.7c0 .3.1.6.3.9.4.4 1 .4 1.4.1l.1-.1c.2-.2.3-.6.3-.9 0-.3-.1-.6-.3-.9-.4-.4-1-.4-1.4-.1l-.1.1c-.2.2-.3.5-.3.9z" id="path74" fill="#fff"/><path class="st0" d="M416.8 287.8c0 1 .1 1.9.4 2.8.3.7.7 1.3 1.2 1.9.5.5 1 .8 1.6 1 1.2.4 2.4.4 3.6 0 .6-.2 1.2-.5 1.6-1 .5-.5.9-1.2 1.2-1.9.3-.9.5-1.9.5-2.8 0-.9-.1-1.9-.5-2.8-.2-.7-.6-1.3-1.2-1.9-.4-.5-1-.8-1.6-1a4.5 4.5 0 0 0-3.6 0c-.6.2-1.2.6-1.6 1a6.15 6.15 0 0 0-1.6 4.7zm1.8 0c0-.7 0-1.3.1-2 .1-.6.3-1.1.5-1.7.2-.5.6-.9 1-1.2.5-.3 1-.4 1.5-.4s1.1.1 1.5.4c.4.3.8.7 1 1.2.3.5.4 1.1.5 1.7.2 1.3.2 2.6 0 3.9-.1.6-.3 1.2-.5 1.7s-.6.9-1 1.2c-.4.3-1 .5-1.5.4-.5 0-1.1-.1-1.5-.4-.4-.3-.8-.7-1-1.2-.3-.5-.4-1.1-.5-1.7-.1-.6-.1-1.3-.1-1.9z" id="path76" fill="#fff"/><path class="st0" d="M435.7 286.7v1.5c0 .9 0 1.9-.1 2.7-.1.8-.1 1.8-.1 2.6h1.7V286c0-.7-.1-1.4-.3-2.1-.1-.5-.4-.9-.8-1.3-.3-.3-.7-.6-1.1-.7-.4-.1-.8-.2-1.2-.2-.7 0-1.4.2-1.9.6-.6.4-1 1-1.4 1.6 0-.6 0-1.3.1-1.9l-.5.1h-.4c-.3 0-.6 0-.9-.1.1.7.1 1.5.1 2.3v7.1c0 .8 0 1.5-.1 2.1h1.8c-.1-.6-.1-1.4-.1-2.1v-4.3a5 5 0 0 1 .7-2.9c.5-.7 1.3-1.1 2.1-1 .7 0 1.3.4 1.6 1 .7.6.9 1.5.8 2.5z" id="path78" fill="#fff"/><path class="st0" d="M440.6 283.1v1.3h.2c.2-.5.6-.9 1.1-1.2.5-.3 1-.4 1.5-.4.4 0 .7.1 1 .3.3.2.5.4.7.6.2.3.3.6.4 1 .1.4.1.8.1 1.2 0 .2 0 .4-.1.6-.1.2-.2.3-.4.4-.3.1-.6.3-.9.3-.4.1-1 .2-1.7.4-.8.1-1.6.5-2.1 1.1-.5.6-.8 1.4-.8 2.2 0 .4.1.9.2 1.3.2.3.4.7.6.9.2.2.5.4.9.6.3.1.7.2 1 .2.6 0 1.2-.1 1.8-.4.6-.3 1-.8 1.5-1.3 0 .4.2.7.4 1 .3.3.6.4 1 .4.3 0 .5 0 .8-.1.2 0 .4-.1.6-.2v-.5c-.1 0-.1.1-.2.1h-.2c-.2 0-.3-.1-.5-.2-.1-.1-.2-.3-.2-.4-.1-.2-.1-.4-.1-.6v-6.4c0-.5-.1-1-.2-1.5-.1-.4-.4-.8-.7-1.1-.3-.3-.6-.6-1-.7-.4-.2-.9-.3-1.4-.3-.6 0-1.1.1-1.6.3-.7.3-1.2.7-1.7 1.1zm5.1 4.4-.1 3.6c-.2.5-.6.9-1 1.2-.4.3-.9.5-1.4.5-.5 0-.9-.2-1.2-.6-.4-.5-.6-1.1-.5-1.7 0-.4.1-.8.2-1.1.1-.3.3-.5.6-.7.3-.2.5-.4.8-.5l.9-.3c.3-.1.6-.2.9-.2.2-.1.5-.1.8-.2z" id="path80" fill="#fff"/><path class="st0" d="M451.1 282.2v8.1c0 .6 0 1.2-.1 1.8-.1.6 0 1-.1 1.4h1.8c0-.4-.1-.8-.1-1.4v-15.4c0-.6 0-1.1.1-1.5-.6.2-1.3.2-1.9 0 0 .4 0 .9.1 1.5s0 1.2.1 1.8c.1.6 0 1.3 0 1.9 0 .6.1 1.2.1 1.8z" id="path82" fill="#fff"/><path class="st0" id="polygon84" fill="#fff" d="m384.3 256.6-15.8-35.3-20.2 46.8-.8.8-1.6.6h-14.3l-.5-.2 27.3-63.4.8-.8h18.6l.4.4.4.8 18.4 41z"/><path d="M345.9 269.6h-14.4l-.5-.2 27.3-63.4.8-.8h18.6l.4.4.5.9 18.4 41-12.7 9.4v-.1l-15.8-35.2-20.2 46.8-.8.8zm-14.3-.1h14.3l1.6-.6.8-.8 20.2-47v.1l15.7 35.3 12.6-9.3-18.3-40.9-.5-.9-.3-.3h-18.5l-.8.8-27.2 63.4z" id="path86" fill="#fff"/><path class="st0" id="polygon88" fill="#fff" d="m389.6 269.9-5.2-13-16.3 13.1z"/><path d="m368 270 .1-.1 16.3-13.1v.1l5.3 13.1zm16.4-13-16.1 12.9h21.3z" id="path90" fill="#fff"/><path class="st0" id="polygon92" fill="#fff" d="M408.3 269.8h-1l-.5-.6-9.6-21.7 32.3-26.5z"/><path d="M408.4 269.8h-1.1l-.5-.5-9.6-21.7 32.3-26.6.1.1zm-1-.1h1l21.1-48.5-32.1 26.4 9.6 21.6z" id="path94" fill="#fff"/><g id="g102" fill="#fff"><path d="M387.2 121.5c-6.4.1-9.6 5.5-9.6 11.4s2.9 11.4 9.6 11.4c6.7 0 9.6-5.6 9.6-11.4 0-5.8-3.1-11.5-9.6-11.4z" id="path96"/><path id="polygon98" d="m325.7 122.2-5.8 14.5h11.6z"/><path d="M280.3 101.1v57.2h176.2v-57.2zm72.5 10.2c2.2 0 4.7 2 6.4 1.9 1.2.1 1.8-1 1.9-1.9h1.9c-.2 1.8-1.1 4.7-3.9 4.7-2.2 0-4.7-2-6.4-1.9-1.2-.1-1.8 1-1.9 1.9h-1.9c.2-1.8 1-4.7 3.9-4.7zm-17 36.2-3-7.3h-14.3l-3 7.3h-4.4l12.5-29.1h4.4l12.3 29.1zm31.5 0H362l-13.2-24h-.1v24h-4.2v-29.1h5.7l12.8 23.5h.1v-23.5h4.2zm19.9.5c-8.9 0-14-6.2-14-15.1 0-8.6 5.2-15.1 14-15.1 8.9 0 14 6.4 14 15.1 0 8.8-5.1 15.1-14 15.1zm24.6 0a20 20 0 0 1-6-1.2l.4-3.9c1.9.8 4 1.3 6 1.4 2.4 0 5.7-1.3 5.7-4.8 0-6.5-12.5-4.7-12.5-13.8 0-5.2 4.1-7.9 9.4-7.9 2.1 0 4.2.4 6.2 1l-.6 3.8c-1.7-.8-3.6-1.2-5.4-1.2-2.3 0-5.1.8-5.1 3.9 0 5.6 12.5 4.3 12.5 13.9 0 6.3-4.8 8.8-10.6 8.8z" id="path100"/></g><path d="M504.7 307.7h2.4v18.8h-2.4z" id="path104" fill="#fff"/><path d="M510.8 315.7c0-1-.1-2-.1-3h2.2l.1 2.1h.1c.6-1.4 2-2.3 3.5-2.2 2.4 0 4 1.4 4 4.4v9.6h-2.3v-8.9c0-2.2-.8-3.1-2.3-3.1-1.8 0-2.9 1.2-2.9 3.7v8.3h-2.3z" id="path106" fill="#fff"/><path d="M522.4 312.7h2.5l3 11.5h.1l3.1-11.5h2.4l-4.1 13.8h-2.7z" id="path108" fill="#fff"/><path d="M537 320.3c0 3.2 1.2 4.7 3.8 4.7 1.1-.1 2.2-.5 3.2-1.1l.1 2c-1.2.5-2.5.8-3.9.8-3.7 0-5.5-2.8-5.5-7.1s1.9-7.1 5.3-7.1c3.1 0 4.8 2.5 4.8 6.5v1.2zm5.5-1.7c0-2.9-.9-4.3-2.7-4.3-1.5 0-2.8 1.1-2.8 4.3z" id="path110" fill="#fff"/><path d="M546.7 323.8c1 .6 2.1 1 3.2 1 1.7 0 2.6-.9 2.6-1.9 0-1-.5-1.6-1.8-2.2l-1.5-.7c-2-.9-2.7-1.8-2.7-3.5 0-2.3 1.8-4 4.4-4 1 0 2 .1 2.9.5l-.1 1.9c-.8-.4-1.8-.6-2.7-.6-1.5 0-2.3.8-2.3 1.9 0 1.1.8 1.7 2.3 2.3l.8.3c1.7.7 2.7 1.8 2.7 3.5 0 2.4-1.3 4.3-4.4 4.3-1.3 0-2.6-.3-3.7-.8z" id="path112" fill="#fff"/><path d="M563.3 326.3c-.6.2-1.3.3-1.9.4-2.1 0-3.2-.8-3.2-3.3v-8.9H556v-1.8h2.2v-2.8l2.3-.7v3.5h2.8v1.8h-2.8v8.1c0 1.6.4 2.2 1.4 2.2.5 0 1-.1 1.4-.4z" id="path114" fill="#fff"/><path d="M567.9 307.1v2.7h-2.5v-2.7zm-2.4 5.6h2.3v13.8h-2.3z" id="path116" fill="#fff"/><path d="M581.2 327.1c0 3.8-2.9 5.4-5.9 5.4-1.4-.1-2.7-.3-4-.8l.1-2.3c1.1.7 2.4 1.1 3.8 1.2 2.8 0 3.9-1.6 3.9-4v-2.2c-.7 1.4-2.1 2.3-3.6 2.3-2.8 0-4.8-2.3-4.8-7.1s1.9-7.1 5-7.1c1.4.1 2.7.9 3.4 2.2l.1-2h2.2c0 .8-.1 1.7-.1 2.5zm-5.3-2.2c2.1 0 3-1.8 3-5.2 0-3.4-.9-5.2-3-5.2s-3 1.8-3 5.2c0 3.4.9 5.2 3 5.2z" id="path118" fill="#fff"/><path d="M584.8 313.7c1.2-.7 2.5-1.1 3.9-1.1 1.3-.1 2.7.4 3.7 1.3.9.9 1.3 2.1 1.2 3.4v7.2c0 .8.1 1.6.1 2.1h-2l-.1-1.9h-.1c-.8 1.4-2.3 2.2-3.9 2-2 .2-3.8-1.3-4-3.3v-.7c0-2.7 1.8-4.6 6.5-4.6h1.3v-.6c.1-.8-.1-1.6-.5-2.2-.6-.6-1.4-.9-2.3-.9a5 5 0 0 0-3.5 1.4zm6.6 6.1c-.5 0-1.1-.1-1.6 0-2.7 0-3.9 1.3-3.9 2.9-.1 1.2.7 2.2 1.9 2.4h.5c1.8 0 3.2-1.5 3.2-3.3v-2z" id="path120" fill="#fff"/><path d="M604.8 315.1c-.8-.5-1.7-.7-2.6-.6-2.2 0-3.8 1.5-3.8 5.3 0 3.2 1.5 5 3.7 5 1 0 2-.3 2.8-.8l.1 2.1c-.9.4-1.9.6-2.9.6-4.1 0-6.1-3-6.1-6.9 0-4.5 2.3-7.2 6.2-7.2.9 0 1.9.2 2.7.5z" id="path122" fill="#fff"/><path d="M609.8 307.1v2.7h-2.5v-2.7zm-2.3 5.6h2.3v13.8h-2.3z" id="path124" fill="#fff"/><path d="M618.1 312.5c3.6 0 5.5 2.8 5.5 7.1s-1.9 7.1-5.5 7.1-5.5-2.8-5.5-7.1 1.9-7.1 5.5-7.1zm0 12.3c2.2 0 3.2-1.8 3.2-5.2 0-3.4-1-5.2-3.2-5.2s-3.2 1.8-3.2 5.2c0 3.4 1 5.3 3.2 5.2zm.5-17.9h2.7l-2.8 3.9h-1.7z" id="path126" fill="#fff"/><path d="M626.3 315.7c0-1-.1-2-.1-3h2.2l.1 2.1c.6-1.4 2-2.3 3.5-2.2 2.4 0 4 1.4 4 4.4v9.6h-2.3v-8.9c0-2.2-.8-3.1-2.3-3.1-1.8 0-2.9 1.2-2.9 3.7v8.3h-2.3z" id="path128" fill="#fff"/><path d="M645.2 317.9h5.8v2h-5.8z" id="path130" fill="#fff"/><path d="M657.3 307.7h2.6l4.4 15.3h.1l4.6-15.3h2.4l-5.9 18.8h-2.4z" id="path132" fill="#fff"/><path d="M675.3 307.1v2.7h-2.5v-2.7zm-2.4 5.6h2.3v13.8h-2.3z" id="path134" fill="#fff"/><path d="M678.7 315.7c0-1-.1-2-.1-3h2.2l.1 2.1h.1c.6-1.4 2-2.3 3.5-2.2 2.4 0 4 1.4 4 4.4v9.6h-2.3v-8.9c0-2.2-.8-3.1-2.3-3.1-1.8 0-2.9 1.2-2.9 3.7v8.3h-2.3z" id="path136" fill="#fff"/><path d="M699.8 315.1c-.8-.5-1.7-.7-2.6-.6-2.2 0-3.8 1.5-3.8 5.3 0 3.2 1.5 5 3.7 5 1 0 1.9-.3 2.8-.7l.1 2.1c-.9.4-1.9.6-2.9.6-4.1 0-6.1-3-6.1-6.9 0-4.5 2.3-7.2 6.2-7.2.9 0 1.9.2 2.7.5z" id="path138" fill="#fff"/><path d="M711.9 323.5c0 1 .1 2 .1 3h-2.2l-.1-2h-.1c-.6 1.4-2 2.3-3.5 2.2-2.4 0-4-1.4-4-4.4v-9.6h2.3v8.9c0 2.2.8 3.1 2.3 3.1 1.8 0 2.9-1.2 2.9-3.7v-8.3h2.3z" id="path140" fill="#fff"/><path d="M715.4 306.3h2.3v20.2h-2.3z" id="path142" fill="#fff"/><path d="M721.8 313.7c1.2-.7 2.5-1.1 3.9-1.1 1.3-.1 2.7.4 3.7 1.3.9.9 1.3 2.1 1.2 3.4v7.2c0 .8.1 1.6.1 2.1h-2l-.1-1.9c-.8 1.4-2.3 2.1-3.9 2-2 .2-3.8-1.3-4-3.3v-.7c0-2.7 1.8-4.6 6.5-4.6h1.3v-.6c.1-.8-.1-1.6-.5-2.2-.6-.6-1.4-.9-2.3-.9a5 5 0 0 0-3.5 1.4zm6.5 6.1c-.5 0-1.1-.1-1.6 0-2.7 0-3.9 1.3-3.9 2.9-.1 1.2.7 2.2 1.9 2.4h.5c1.8 0 3.2-1.5 3.2-3.3v-2z" id="path144" fill="#fff"/><path d="M741.8 315.1c-.8-.5-1.7-.7-2.6-.6-2.2 0-3.8 1.5-3.8 5.3 0 3.2 1.5 5 3.7 5 1 0 1.9-.3 2.8-.7l.1 2.1c-.9.4-1.9.6-2.9.6-4.1 0-6.1-3-6.1-6.9 0-4.5 2.3-7.2 6.2-7.2.9 0 1.9.2 2.7.5z" id="path146" fill="#fff"/><path d="M746.8 307.1v2.7h-2.5v-2.7zm-2.4 5.6h2.3v13.8h-2.3z" id="path148" fill="#fff"/><path d="M755.1 312.5c3.7 0 5.5 2.8 5.5 7.1s-1.9 7.1-5.5 7.1-5.5-2.8-5.5-7.1 1.8-7.1 5.5-7.1zm0 12.3c2.2 0 3.2-1.8 3.2-5.2 0-3.4-1-5.2-3.2-5.2s-3.2 1.8-3.2 5.2c0 3.4 1 5.3 3.2 5.2zm.4-17.9h2.7l-2.8 3.9h-1.7z" id="path150" fill="#fff"/><path d="M763.2 315.7c0-1-.1-2-.1-3h2.2l.1 2.1c.6-1.4 2-2.3 3.5-2.2 2.4 0 4 1.4 4 4.4v9.6h-2.3v-8.9c0-2.2-.8-3.1-2.3-3.1-1.8 0-2.9 1.2-2.9 3.7v8.3h-2.3z" id="path152" fill="#fff"/><path d="M790.8 315.1c-.8-.5-1.7-.7-2.6-.6-2.2 0-3.8 1.5-3.8 5.3 0 3.2 1.5 5 3.7 5 1 0 1.9-.3 2.8-.7l.1 2.1c-.9.4-1.9.6-2.9.6-4.1 0-6.1-3-6.1-6.9 0-4.5 2.3-7.2 6.2-7.2.9 0 1.9.2 2.7.5z" id="path154" fill="#fff"/><path d="M798.1 312.5c3.7 0 5.5 2.8 5.5 7.1s-1.9 7.1-5.5 7.1-5.5-2.8-5.5-7.1 1.8-7.1 5.5-7.1zm0 12.3c2.2 0 3.2-1.8 3.2-5.2 0-3.4-1-5.2-3.2-5.2s-3.2 1.8-3.2 5.2c0 3.4 1 5.3 3.2 5.2z" id="path156" fill="#fff"/><path d="M806.2 315.7c0-1-.1-2-.1-3h2.2l.1 2.1c.6-1.4 2-2.3 3.5-2.2 2.4 0 4 1.4 4 4.4v9.6h-2.3v-8.9c0-2.2-.8-3.1-2.3-3.1-1.8 0-2.9 1.2-2.9 3.7v8.3h-2.3z" id="path158" fill="#fff"/><path d="M827.4 320.3c0 3.2 1.2 4.7 3.8 4.7 1.1-.1 2.2-.5 3.2-1.1l.1 2c-1.2.5-2.5.8-3.9.8-3.6 0-5.5-2.8-5.5-7.1s1.9-7.1 5.3-7.1c3.1 0 4.8 2.5 4.8 6.5v1.2zm5.5-1.7c0-2.9-.9-4.3-2.7-4.3-1.5 0-2.8 1.1-2.8 4.3z" id="path160" fill="#fff"/><path d="M837.9 306.3h2.3v20.2h-2.3z" id="path162" fill="#fff"/><path d="M850.2 315.7c0-1-.1-2-.1-3h2.2l.1 2.1h.1c.8-1.8 2.9-2.7 4.7-2 .9.4 1.6 1 1.9 1.9.6-1.3 1.9-2.2 3.3-2.1 2.4 0 4 1.4 4 4.4v9.6h-2.3V317c0-1.8-.8-2.6-2.1-2.6-1.7 0-2.6 1-2.6 3.5v8.5h-2.3V317c0-1.8-.8-2.6-2.1-2.6-1.7 0-2.6 1-2.6 3.5v8.5h-2.3z" id="path164" fill="#fff"/><path d="M871.4 320.3c0 3.2 1.2 4.7 3.8 4.7 1.1-.1 2.2-.5 3.2-1.1l.1 2c-1.2.5-2.5.8-3.9.8-3.6 0-5.5-2.8-5.5-7.1s1.9-7.1 5.3-7.1c3.1 0 4.8 2.5 4.8 6.5v1.2zm5.5-1.7c0-2.9-.9-4.3-2.7-4.3-1.5 0-2.8 1.1-2.8 4.3z" id="path166" fill="#fff"/><path d="M891.6 324c0 .8.1 1.7.1 2.5h-2.2l-.1-2c-.7 1.4-2.1 2.3-3.6 2.2-2.8 0-4.8-2.3-4.8-7.1s1.9-7.1 4.8-7.1c1.5 0 2.8.8 3.5 2.1v-8.4h2.3zm-5.3-9.6c-2.1 0-3 1.8-3 5.2 0 3.4.9 5.2 3 5.2s3-1.8 3-5.2c0-3.4-.9-5.2-3-5.2z" id="path168" fill="#fff"/><path d="M897.2 307.1v2.7h-2.5v-2.7zm-2.3 5.6h2.3v13.8h-2.3z" id="path170" fill="#fff"/><path d="M905.5 312.5c3.6 0 5.5 2.8 5.5 7.1s-1.9 7.1-5.5 7.1-5.5-2.8-5.5-7.1 1.9-7.1 5.5-7.1zm0 12.3c2.2 0 3.2-1.8 3.2-5.2 0-3.4-1-5.2-3.2-5.2s-3.2 1.8-3.2 5.2c0 3.4 1 5.3 3.2 5.2z" id="path172" fill="#fff"/><path d="M919.6 317.9h5.8v2h-5.8z" id="path174" fill="#fff"/><path d="M947.4 325.7c-1.5.6-3.1.9-4.7 1-6 0-8.5-4.5-8.5-9.6 0-5.9 3.4-9.6 8.3-9.6 1.5-.1 3 .2 4.4.8v2.4c-1.4-.7-2.9-1.1-4.4-1.2-3.1 0-5.9 2.5-5.9 7 0 4.9 1.9 8.1 6 8.1.8 0 1.6-.2 2.3-.5v-5.9H942v-2h5.4z" id="path176" fill="#fff"/><path d="M952.8 320.3c0 3.2 1.2 4.7 3.8 4.7 1.1-.1 2.2-.5 3.2-1.1l.1 2c-1.2.5-2.5.8-3.9.8-3.6 0-5.5-2.8-5.5-7.1s1.9-7.1 5.3-7.1c3.1 0 4.8 2.5 4.8 6.5v1.2zm5.6-1.7c0-2.9-.9-4.3-2.7-4.3-1.5 0-2.8 1.1-2.8 4.3z" id="path178" fill="#fff"/><path d="M962.5 323.8c1 .6 2.1 1 3.2 1 1.7 0 2.6-.9 2.6-1.9 0-1-.5-1.6-1.8-2.2l-1.5-.7c-2-.9-2.7-1.8-2.7-3.5 0-2.3 1.8-4 4.4-4 1 0 2 .1 2.9.5l-.1 1.9c-.8-.4-1.8-.6-2.7-.6-1.5 0-2.3.8-2.3 1.9 0 1.1.8 1.7 2.3 2.3l.8.3c1.7.7 2.7 1.8 2.7 3.5 0 2.4-1.3 4.3-4.4 4.3-1.3 0-2.6-.3-3.7-.8z" id="path180" fill="#fff"/><path d="M979.2 326.3c-.6.2-1.3.3-1.9.4-2.1 0-3.2-.8-3.2-3.3v-8.9h-2.2v-1.8h2.2v-2.8l2.3-.7v3.5h2.8v1.8h-2.8v8.1c0 1.6.4 2.2 1.4 2.2.5 0 1-.1 1.4-.4z" id="path182" fill="#fff"/><path d="M983.7 307.1v2.7h-2.5v-2.7zm-2.4 5.6h2.3v13.8h-2.3z" id="path184" fill="#fff"/><path d="M992 312.5c3.7 0 5.5 2.8 5.5 7.1s-1.9 7.1-5.5 7.1-5.5-2.8-5.5-7.1 1.8-7.1 5.5-7.1zm0 12.3c2.2 0 3.2-1.8 3.2-5.2 0-3.4-1-5.2-3.2-5.2s-3.2 1.8-3.2 5.2c0 3.4 1 5.3 3.2 5.2zm.5-17.9h2.7l-2.8 3.9h-1.7z" id="path186" fill="#fff"/><path d="M1000.1 315.7c0-1-.1-2-.1-3h2.2l.1 2.1c.6-1.4 2-2.3 3.5-2.2 2.4 0 4 1.4 4 4.4v9.6h-2.3v-8.9c0-2.2-.8-3.1-2.3-3.1-1.8 0-2.9 1.2-2.9 3.7v8.3h-2.3z" id="path188" fill="#fff"/><path d="M1020 307.7h2.4v18.8h-2.4z" id="path190" fill="#fff"/><path d="M1026.2 315.7c0-1-.1-2-.1-3h2.2l.1 2.1h.1c.6-1.4 2-2.3 3.5-2.2 2.4 0 4 1.4 4 4.4v9.6h-2.3v-8.9c0-2.2-.8-3.1-2.3-3.1-1.8 0-2.9 1.2-2.9 3.7v8.3h-2.3z" id="path192" fill="#fff"/><path d="M1038.6 323.8c1 .6 2.1 1 3.2 1 1.7 0 2.6-.9 2.6-1.9 0-1-.5-1.6-1.8-2.2l-1.5-.7c-2-.9-2.7-1.8-2.7-3.5 0-2.3 1.8-4 4.4-4 1 0 2 .1 2.9.5l-.1 1.9c-.8-.4-1.8-.6-2.7-.6-1.5 0-2.3.8-2.3 1.9 0 1.1.8 1.7 2.3 2.3l.8.3c1.7.7 2.7 1.8 2.7 3.5 0 2.4-1.3 4.3-4.4 4.3-1.3 0-2.6-.3-3.7-.8z" id="path194" fill="#fff"/><path d="M1055.2 326.3c-.6.2-1.3.3-1.9.4-2.1 0-3.2-.8-3.2-3.3v-8.9h-2.2v-1.8h2.2v-2.8l2.3-.7v3.5h2.8v1.8h-2.8v8.1c0 1.6.4 2.2 1.4 2.2.5 0 1-.1 1.4-.4z" id="path196" fill="#fff"/><path d="M1059.7 307.1v2.7h-2.5v-2.7zm-2.3 5.6h2.3v13.8h-2.3z" id="path198" fill="#fff"/><path d="M1069.2 326.3c-.6.2-1.3.3-1.9.4-2.1 0-3.2-.8-3.2-3.3v-8.9h-2.2v-1.8h2.2v-2.8l2.3-.7v3.5h2.8v1.8h-2.8v8.1c0 1.6.4 2.2 1.4 2.2.5 0 1-.1 1.4-.4z" id="path200" fill="#fff"/><path d="M1080.8 323.5c0 1 .1 2 .1 3h-2.2l-.1-2c-.6 1.4-2 2.3-3.5 2.2-2.4 0-4-1.4-4-4.4v-9.6h2.3v8.9c0 2.2.8 3.1 2.3 3.1 1.8 0 2.9-1.2 2.9-3.7v-8.3h2.3z" id="path202" fill="#fff"/><path d="M1092.2 315.1c-.8-.5-1.7-.7-2.6-.6-2.2 0-3.8 1.5-3.8 5.3 0 3.2 1.5 5 3.7 5 1 0 1.9-.3 2.8-.7l.1 2.1c-.9.4-1.9.6-2.9.6-4.1 0-6.1-3-6.1-6.9 0-4.5 2.3-7.2 6.2-7.2.9 0 1.9.2 2.7.5z" id="path204" fill="#fff"/><path d="M1097.2 307.1v2.7h-2.5v-2.7zm-2.3 5.6h2.3v13.8h-2.3z" id="path206" fill="#fff"/><path d="M1105.5 312.5c3.7 0 5.5 2.8 5.5 7.1s-1.9 7.1-5.5 7.1-5.5-2.8-5.5-7.1 1.8-7.1 5.5-7.1zm0 12.3c2.2 0 3.2-1.8 3.2-5.2 0-3.4-1-5.2-3.2-5.2s-3.2 1.8-3.2 5.2c0 3.4 1 5.3 3.2 5.2z" id="path208" fill="#fff"/><path d="M1113.7 315.7c0-1-.1-2-.1-3h2.2l.1 2.1c.6-1.4 2-2.3 3.5-2.2 2.4 0 4 1.4 4 4.4v9.6h-2.3v-8.9c0-2.2-.8-3.1-2.3-3.1-1.8 0-2.9 1.2-2.9 3.7v8.3h-2.3z" id="path210" fill="#fff"/><path d="M1127.2 313.7c1.2-.7 2.5-1.1 3.9-1.1 1.3-.1 2.7.4 3.7 1.3.9.9 1.3 2.1 1.2 3.4v7.2c0 .7 0 1.4.1 2.1h-2l-.1-1.9c-.8 1.4-2.3 2.1-3.9 2-2 .2-3.8-1.3-4-3.3v-.7c0-2.7 1.8-4.6 6.5-4.6h1.3v-.6c.1-.8-.1-1.6-.5-2.2-.6-.6-1.4-.9-2.3-.9a5 5 0 0 0-3.5 1.4zm6.6 6.1c-.5 0-1.1-.1-1.6 0-2.7 0-3.9 1.3-3.9 2.9-.2 1.2.7 2.2 1.8 2.4h.5c1.8 0 3.2-1.5 3.2-3.3v-.2z" id="path212" fill="#fff"/><path d="M1139.4 306.3h2.3v20.2h-2.3z" id="path214" fill="#fff"/><path d="M504.4 340.1h4.1c1.8-.1 3.5.4 5 1.4 1.7 1.2 3.5 3.5 3.5 7.8 0 5.5-2.6 9.7-9.7 9.7h-2.9zm2.4 16.8h1.4c4.1 0 6.3-2.8 6.3-7.7 0-3.9-1.7-7.1-6.3-7.1h-1.4z" id="path216" fill="#fff"/><path d="M524.6 345c3.6 0 5.5 2.8 5.5 7.1s-1.9 7.1-5.5 7.1-5.5-2.8-5.5-7.1 1.9-7.1 5.5-7.1zm0 12.3c2.2 0 3.2-1.8 3.2-5.2 0-3.4-1-5.2-3.2-5.2s-3.2 1.8-3.2 5.2c0 3.4 1.1 5.1 3.2 5.2z" id="path218" fill="#fff"/><path d="M540.9 347.5c-.8-.5-1.7-.7-2.6-.6-2.2 0-3.8 1.5-3.8 5.3 0 3.2 1.5 5 3.7 5 1 0 1.9-.3 2.8-.7l.1 2.1c-.9.4-1.9.6-2.9.6-4.1 0-6.1-3-6.1-6.9 0-4.5 2.3-7.2 6.2-7.2.9 0 1.9.2 2.7.5z" id="path220" fill="#fff"/><path d="M545 352.7c0 3.2 1.2 4.7 3.8 4.7 1.1-.1 2.2-.5 3.2-1.1l.1 2c-1.2.5-2.5.8-3.9.8-3.6 0-5.5-2.8-5.5-7.1s1.9-7.1 5.3-7.1c3.1 0 4.8 2.5 4.8 6.5v1.2zm5.5-1.7c0-2.9-.9-4.3-2.7-4.3-1.5 0-2.8 1.1-2.8 4.3z" id="path222" fill="#fff"/><path d="M555.2 348.1c0-1-.1-2-.1-3h2.2l.1 2.1c.6-1.4 2-2.3 3.5-2.2 2.4 0 4 1.4 4 4.4v9.6h-2.3v-9c0-2.2-.8-3.1-2.3-3.1-1.8 0-2.9 1.2-2.9 3.7v8.3h-2.3v-10.8z" id="path224" fill="#fff"/><path d="M576.4 347.5c-.8-.5-1.7-.7-2.6-.6-2.2 0-3.8 1.5-3.8 5.3 0 3.2 1.5 5 3.7 5 1 0 1.9-.3 2.8-.7l.1 2.1c-.9.4-1.9.6-2.9.6-4.1 0-6.1-3-6.1-6.9 0-4.5 2.3-7.2 6.2-7.2.9 0 1.9.2 2.7.5z" id="path226" fill="#fff"/><path d="M581.4 339.5v2.7h-2.5v-2.7zm-2.4 5.6h2.3v13.8H579Z" id="path228" fill="#fff"/><path d="M585.3 346.1c1.2-.7 2.5-1.1 3.9-1.1 1.3-.1 2.7.4 3.7 1.3.9.9 1.3 2.1 1.2 3.4v7.2c0 .7 0 1.4.1 2.1h-2.1l-.1-2c-.8 1.3-2.3 2.1-3.9 2-2 .2-3.8-1.3-4-3.3v-.7c0-2.7 1.8-4.6 6.5-4.6h1.3v-.6c.1-.8-.1-1.6-.5-2.2-.6-.6-1.4-.9-2.3-.9a5 5 0 0 0-3.5 1.4zm6.6 6h-1.6c-2.7 0-3.9 1.3-3.9 2.9-.2 1.2.7 2.2 1.8 2.4h.5c1.8 0 3.2-1.5 3.2-3.3v-.2z" id="path230" fill="#fff"/><path d="M613.7 356.4c0 .8.1 1.7.1 2.5h-2.2l-.1-2c-.7 1.4-2.1 2.3-3.6 2.2-2.8 0-4.8-2.3-4.8-7.1s1.9-7 4.7-7c1.5 0 2.8.8 3.5 2.1v-8.4h2.3zm-5.3-9.6c-2.1 0-3 1.8-3 5.2 0 3.4.9 5.2 3 5.2s3-1.8 3-5.2c0-3.4-1-5.2-3-5.2z" id="path232" fill="#fff"/><path d="M618.4 352.7c0 3.2 1.2 4.7 3.8 4.7 1.1-.1 2.2-.5 3.2-1.1l.1 2c-1.2.5-2.5.8-3.9.8-3.7 0-5.5-2.8-5.5-7.1s1.9-7.1 5.3-7.1c3.1 0 4.8 2.5 4.8 6.5v1.2zm5.5-1.7c0-2.9-.9-4.3-2.7-4.3-1.5 0-2.8 1.1-2.8 4.3z" id="path234" fill="#fff"/><path d="M635.6 340.1h4.5c1.5-.1 3 .4 4.1 1.5 1 1 1.5 2.4 1.5 3.9 0 3.7-2.1 5.6-6.1 5.6H638v7.9h-2.4zm2.4 9h1.3c2.9 0 3.9-1.4 3.9-3.5 0-2.6-1.5-3.6-3.9-3.6H638Z" id="path236" fill="#fff"/><path d="M648.2 348.1c0-1-.1-2-.1-3h2.2l.1 2.2h.1c.7-1.7 1.9-2.3 3.9-2.3v2.2c-.3-.1-.6-.1-.9-.1-1.8 0-3 1.5-3 4.5v7.3h-2.3z" id="path238" fill="#fff"/><path d="M657.9 352.7c0 3.2 1.2 4.7 3.8 4.7 1.1-.1 2.2-.5 3.2-1.1l.1 2c-1.2.5-2.5.8-3.9.8-3.6 0-5.5-2.8-5.5-7.1s1.9-7.1 5.3-7.1c3.1 0 4.8 2.5 4.8 6.5v1.2zm5.5-1.7c0-2.9-.9-4.3-2.7-4.3-1.5 0-2.8 1.1-2.8 4.3z" id="path240" fill="#fff"/><path d="M678.1 359.5c0 3.8-2.9 5.4-5.9 5.4-1.4-.1-2.7-.3-4-.8l.1-2.3c1.1.7 2.4 1.1 3.8 1.2 2.8 0 3.9-1.6 3.9-4v-2.2c-.7 1.4-2.1 2.3-3.6 2.3-2.8 0-4.8-2.3-4.8-7.1s1.9-7.1 5-7.1c1.4.1 2.7.9 3.4 2.2l.1-2h2.2c0 .8-.1 1.7-.1 2.5zm-5.3-2.3c2.1 0 3-1.8 3-5.2 0-3.4-.9-5.2-3-5.2s-3 1.8-3 5.2c0 3.4.9 5.2 3 5.2z" id="path242" fill="#fff"/><path d="M681.2 348.1c0-1-.1-2-.1-3h2.2l.1 2.2c.7-1.7 1.9-2.3 3.9-2.3v2.2c-.3-.1-.6-.1-.9-.1-1.8 0-3 1.5-3 4.5v7.3h-2.3z" id="path244" fill="#fff"/><path d="M689.7 346.1c1.2-.7 2.5-1.1 3.9-1.1 1.3-.1 2.7.4 3.7 1.3.9.9 1.3 2.1 1.2 3.4v7.2c0 .8 0 1.6.1 2.1h-2l-.1-1.9h-.1c-.8 1.3-2.3 2.1-3.8 2-2 .2-3.8-1.3-4-3.3v-.7c0-2.7 1.8-4.6 6.5-4.6h1.3v-.6c.1-.8-.1-1.6-.5-2.2-.6-.6-1.4-.9-2.3-.9a5 5 0 0 0-3.5 1.4zm6.6 6h-1.6c-2.7 0-4 1.3-4 2.9-.1 1.2.7 2.2 1.9 2.4h.5c1.8 0 3.2-1.5 3.2-3.3v-.2z" id="path246" fill="#fff"/><path d="M711.5 356.4c0 .8.1 1.7.1 2.5h-2.2l-.1-2c-.7 1.4-2.1 2.3-3.6 2.2-2.8 0-4.8-2.3-4.8-7.1s1.9-7.1 4.8-7.1c1.5 0 2.8.8 3.5 2.1v-8.4h2.3zm-5.2-9.6c-2.1 0-3 1.8-3 5.2 0 3.4.9 5.2 3 5.2s3-1.8 3-5.2c0-3.4-1-5.2-3-5.2z" id="path248" fill="#fff"/><path d="M719.5 345c3.6 0 5.5 2.8 5.5 7.1s-1.9 7.1-5.5 7.1-5.5-2.8-5.5-7.1 1.8-7.1 5.5-7.1zm0 12.3c2.2 0 3.2-1.8 3.2-5.2 0-3.4-1-5.2-3.2-5.2s-3.2 1.8-3.2 5.2c0 3.4 1 5.1 3.2 5.2z" id="path250" fill="#fff"/><path d="M733.6 350.3h5.8v2h-5.8z" id="path252" fill="#fff"/><path d="M748.8 340.1h4.1c1.8-.1 3.5.4 5 1.4 1.7 1.2 3.5 3.5 3.5 7.8 0 5.5-2.6 9.7-9.7 9.7h-2.9zm2.3 16.8h1.4c4.2 0 6.3-2.8 6.3-7.7 0-3.9-1.7-7.1-6.3-7.1h-1.4z" id="path254" fill="#fff"/><path d="M769 345c3.7 0 5.5 2.8 5.5 7.1s-1.9 7.1-5.5 7.1-5.5-2.8-5.5-7.1 1.8-7.1 5.5-7.1zm0 12.3c2.2 0 3.2-1.8 3.2-5.2 0-3.4-1-5.2-3.2-5.2s-3.2 1.8-3.2 5.2c0 3.4 1 5.1 3.2 5.2z" id="path256" fill="#fff"/><path d="M785.2 347.5c-.8-.5-1.7-.7-2.6-.6-2.2 0-3.8 1.5-3.8 5.3 0 3.2 1.5 5 3.7 5 1 0 1.9-.3 2.8-.7l.1 2.1c-.9.4-1.9.6-2.9.6-4.1 0-6.1-3-6.1-6.9 0-4.5 2.3-7.2 6.2-7.2.9 0 1.9.2 2.7.5z" id="path258" fill="#fff"/><path d="M789.3 352.7c0 3.2 1.2 4.7 3.8 4.7 1.1-.1 2.2-.5 3.2-1.1l.1 2c-1.2.5-2.5.8-3.9.8-3.7 0-5.5-2.8-5.5-7.1s1.9-7.1 5.3-7.1c3.1 0 4.8 2.5 4.8 6.5v1.2zm5.5-1.7c0-2.9-.9-4.3-2.7-4.3-1.5 0-2.8 1.1-2.8 4.3z" id="path260" fill="#fff"/><path d="M799.6 348.1c0-1-.1-2-.1-3h2.2l.1 2.1c.6-1.4 2-2.3 3.5-2.2 2.4 0 4 1.4 4 4.4v9.6H807v-9c0-2.2-.8-3.1-2.3-3.1-1.8 0-2.9 1.2-2.9 3.7v8.3h-2.2z" id="path262" fill="#fff"/><path d="M820.7 347.5c-.8-.5-1.7-.7-2.6-.6-2.2 0-3.8 1.5-3.8 5.3 0 3.2 1.5 5 3.7 5 1 0 1.9-.3 2.8-.7l.1 2.1c-.9.4-1.9.6-2.9.6-4.1 0-6.1-3-6.1-6.9 0-4.5 2.3-7.2 6.2-7.2.9 0 1.9.2 2.7.5z" id="path264" fill="#fff"/><path d="M825.7 339.5v2.7h-2.5v-2.7zm-2.4 5.6h2.3v13.8h-2.3z" id="path266" fill="#fff"/><path d="M829.7 346.1c1.2-.7 2.5-1.1 3.9-1.1 1.3-.1 2.7.4 3.7 1.3.9.9 1.3 2.1 1.2 3.4v7.2c0 .8.1 1.6.1 2.1h-2l-.1-1.9c-.8 1.3-2.3 2.1-3.9 2-2 .2-3.8-1.3-4-3.3v-.7c0-2.7 1.8-4.6 6.5-4.6h1.3v-.6c.1-.8-.1-1.6-.5-2.2-.6-.6-1.4-.9-2.3-.9a5 5 0 0 0-3.5 1.4zm6.5 6h-1.6c-2.7 0-3.9 1.3-3.9 2.9-.2 1.2.7 2.2 1.8 2.4h.5c1.8 0 3.2-1.5 3.2-3.3v-.2z" id="path268" fill="#fff"/><path d="M848.5 340.1h4.5c1.5-.1 3 .4 4.1 1.5 1 1 1.5 2.4 1.5 3.9 0 3.7-2.1 5.6-6.1 5.6h-1.6v7.9h-2.4zm2.4 9h1.3c2.9 0 3.9-1.4 3.9-3.5 0-2.6-1.5-3.6-3.9-3.6h-1.3z" id="path270" fill="#fff"/><path d="M864.9 345c3.7 0 5.5 2.8 5.5 7.1s-1.9 7.1-5.5 7.1-5.5-2.8-5.5-7.1 1.9-7.1 5.5-7.1zm0 12.3c2.2 0 3.2-1.8 3.2-5.2 0-3.4-1-5.2-3.2-5.2s-3.2 1.8-3.2 5.2c0 3.4 1.1 5.1 3.2 5.2z" id="path272" fill="#fff"/><path d="M872.5 356.2c1 .6 2.1 1 3.2 1 1.7 0 2.6-.9 2.6-1.9 0-1-.5-1.6-1.8-2.2l-1.5-.7c-2-.9-2.7-1.8-2.7-3.5 0-2.3 1.8-4 4.4-4 1 0 2 .1 2.9.5l-.1 1.9c-.8-.4-1.8-.6-2.7-.6-1.5 0-2.3.8-2.3 1.9 0 1.1.8 1.7 2.3 2.3l.8.3c1.7.7 2.7 1.8 2.7 3.5 0 2.4-1.3 4.3-4.4 4.3-1.3 0-2.6-.3-3.7-.8z" id="path274" fill="#fff"/><path d="M889.2 358.7c-.6.2-1.3.3-1.9.4-2.1 0-3.2-.8-3.2-3.3V347h-2.2v-1.8h2.2v-2.8l2.3-.7v3.5h2.8v1.8h-2.8v8.1c0 1.6.4 2.2 1.4 2.2.5 0 1-.1 1.4-.4z" id="path276" fill="#fff"/><path d="M901 359.5c0 3.8-2.9 5.4-5.9 5.4-1.4-.1-2.7-.3-4-.8l.1-2.3c1.1.7 2.4 1.2 3.8 1.2 2.8 0 3.9-1.6 3.9-4v-2.2c-.7 1.4-2.1 2.3-3.6 2.3-2.8 0-4.8-2.3-4.8-7.1s1.9-7.1 5-7.1c1.4.1 2.7.9 3.4 2.2l.1-2h2.2c0 .8-.1 1.7-.1 2.5zm-5.3-2.3c2.1 0 3-1.8 3-5.2 0-3.4-.9-5.2-3-5.2s-3 1.8-3 5.2c0 3.4.9 5.2 3 5.2z" id="path278" fill="#fff"/><path d="M904.1 348.1c0-1-.1-2-.1-3h2.2l.1 2.2c.7-1.7 1.9-2.3 3.9-2.3v2.2c-.3-.1-.6-.1-.9-.1-1.8 0-3 1.5-3 4.5v7.3H904Z" id="path280" fill="#fff"/><path d="M912.6 346.1c1.2-.7 2.5-1.1 3.9-1.1 1.3-.1 2.7.4 3.7 1.3.9.9 1.3 2.1 1.2 3.4v7.2c0 .8 0 1.6.1 2.1h-2l-.1-1.9h-.1c-.8 1.3-2.3 2.1-3.9 2-2 .2-3.8-1.3-4-3.3v-.7c0-2.7 1.8-4.6 6.5-4.6h1.3v-.6c.1-.8-.1-1.6-.5-2.2-.6-.6-1.4-.9-2.3-.9a5 5 0 0 0-3.5 1.4zm6.6 6h-1.6c-2.7 0-3.9 1.3-3.9 2.9-.1 1.2.7 2.2 1.9 2.4h.5c1.8 0 3.2-1.5 3.2-3.3v-2z" id="path282" fill="#fff"/><path d="M934.5 356.4c0 .8.1 1.7.1 2.5h-2.2l-.1-2h-.1c-.7 1.4-2.1 2.2-3.6 2.2-2.8 0-4.8-2.3-4.8-7.1s1.9-7.1 4.8-7.1c1.5 0 2.8.8 3.5 2.1v-8.4h2.3v17.8zm-5.3-9.6c-2.1 0-3 1.8-3 5.2 0 3.4 1 5.2 3 5.2s3-1.8 3-5.2c0-3.4-1-5.2-3-5.2z" id="path284" fill="#fff"/><path d="M942.4 345c3.6 0 5.5 2.8 5.5 7.1s-1.9 7.1-5.5 7.1-5.5-2.8-5.5-7.1 1.9-7.1 5.5-7.1zm0 12.3c2.2 0 3.2-1.8 3.2-5.2 0-3.4-1-5.2-3.2-5.2s-3.2 1.8-3.2 5.2c0 3.4 1 5.1 3.2 5.2z" id="path286" fill="#fff"/><path d="M505.9 83v26.9c0 6.9 2.1 9.2 6.6 9.2s6.5-2.3 6.5-9.2V83h7.6v26.9c0 10.9-6.3 15.2-14.1 15.2s-14.2-4.3-14.2-15.2V83Z" id="path288" fill="#fff"/><path d="M533.8 99c0-1.7-.1-3.3-.2-5h6.9c.1 1.5.2 3.2.2 4.7h.1c1.1-1.8 3.2-5.2 8.2-5.2 7 0 9 5.2 9 11.4v19.7h-7.4v-18.5c0-4.7-1.2-6.7-4.2-6.7-3.9 0-5.2 3.3-5.2 7.2v17.8h-7.4z" id="path290" fill="#fff"/><path d="M565 80.9h7.6v7.3H565Zm.1 13h7.4v30.6h-7.4z" id="path292" fill="#fff"/><path d="M577 93.9h7.6l6.2 23.6h.1l6.3-23.6h7.1l-9.4 30.6h-8.7z" id="path294" fill="#fff"/><path d="M630.6 123.1c-2.9 1.3-6 2-9.2 2-9.9 0-14.2-7.1-14.2-15.3 0-9.2 4.8-16.2 12.6-16.2 6.6 0 12.2 3.9 12.2 16.3v1.4h-17.7c0 5.2 2.1 8.4 7.8 8.4 4.5 0 6.7-1.4 8-2.4zm-5.6-16.5c0-5.4-1.8-8.1-5.1-8.1-3.9 0-5.5 4.1-5.5 8.1z" id="path296" fill="#fff"/><path d="M638 99c0-1.7-.1-3.3-.2-5h6.7c.1 1.8.2 3.7.2 5.6h.1c.9-2.4 3.2-6.1 7.8-6.1.4 0 .8.1 1.2.2v6.9c-.7-.2-1.4-.3-2.1-.3-3 0-6.4 1.8-6.4 7.6v16.8H638Z" id="path298" fill="#fff"/><path d="M657.7 117.4c2.4 1.2 5 1.9 7.7 2 2.7 0 4.8-.7 4.8-3 0-1.2-.6-2.3-3.3-3.9l-3-1.8c-3.1-1.8-6.5-3.8-6.5-8.6 0-4.2 4.1-8.7 10.6-8.7 2.6 0 5.2.4 7.7 1.2l-.4 5.7c-2.1-.9-4.3-1.4-6.5-1.4-3 0-4.2 1.1-4.2 3 0 1.7 1.3 2.6 3.5 3.9l3.6 2.3c3.8 2.4 5.7 4.2 5.7 7.7 0 5.7-4.8 9-11.4 9-2.9 0-5.8-.5-8.5-1.5z" id="path300" fill="#fff"/><path d="M683.1 80.9h7.6v7.3h-7.6zm.1 13h7.4v30.6h-7.4z" id="path302" fill="#fff"/><path d="M723 79.9v39.4c0 1.7 0 3.5.2 5.2h-6.9c-.2-1.6-.3-3.2-.2-4.8h-.2a8.29 8.29 0 0 1-8.2 5.2c-7.6 0-10.8-7.3-10.8-15.8 0-10 4-15.8 10.6-15.8 3.4-.2 6.5 1.8 7.9 4.9h.1V79.9Zm-13.2 39.7c4.3 0 5.8-4.7 5.8-10.5 0-5.9-1.7-10.3-5.7-10.3s-5.5 4-5.5 10.1c-.1 7.1 1.1 10.7 5.4 10.7z" id="path304" fill="#fff"/><path d="M731 95.7c3-1.5 6.3-2.3 9.7-2.3 9.5 0 11.7 4.6 11.7 12.3v13.4c0 1.8.1 3.6.4 5.4h-6.7c-.3-1.4-.5-2.8-.4-4.2h-.1c-1.8 2.5-4.2 4.6-8.6 4.6-4.8 0-9.2-3.3-9.2-9 0-8.3 6.8-10.4 16.1-10.4h1.5v-1.1c0-3-1.5-5.8-5.7-5.8-3 .1-6 1.1-8.4 3zm14.6 13.9h-.7c-6.3 0-10 1.3-10 5.8-.1 2.4 1.7 4.5 4.2 4.7h.5c4.4 0 6-3.3 6-8.7z" id="path306" fill="#fff"/><path d="M784.3 79.9v39.4c0 1.7 0 3.5.2 5.2h-6.9c-.2-1.6-.3-3.2-.2-4.8h-.2a8.29 8.29 0 0 1-8.2 5.2c-7.6 0-10.8-7.3-10.8-15.8 0-10 4-15.8 10.6-15.8 3.4-.2 6.5 1.8 7.9 4.9h.1V79.9Zm-13.2 39.7c4.3 0 5.8-4.7 5.8-10.5 0-5.9-1.7-10.3-5.7-10.3s-5.5 4-5.5 10.1c0 7.1 1.1 10.7 5.4 10.7z" id="path308" fill="#fff"/><path d="M831.3 79.9v39.4c0 1.7 0 3.5.2 5.2h-6.9c-.2-1.6-.2-3.2-.2-4.8h-.2a8.29 8.29 0 0 1-8.2 5.2c-7.6 0-10.8-7.3-10.8-15.8 0-10 4-15.8 10.6-15.8 3.4-.2 6.5 1.8 7.9 4.9h.2V79.9Zm-13.2 39.7c4.3 0 5.8-4.7 5.8-10.5 0-5.9-1.7-10.3-5.7-10.3s-5.5 4-5.5 10.1c0 7.1 1.1 10.7 5.4 10.7z" id="path310" fill="#fff"/><path d="M860.4 123.1c-2.9 1.3-6 2-9.2 2-9.9 0-14.2-7.1-14.2-15.3 0-9.2 4.8-16.2 12.6-16.2 6.6 0 12.2 3.9 12.2 16.3v1.4h-17.7c0 5.2 2.1 8.4 7.8 8.4 4.5 0 6.7-1.4 8-2.4zm-5.6-16.5c0-5.4-1.8-8.1-5.1-8.1-3.9 0-5.5 4.1-5.5 8.1z" id="path312" fill="#fff"/><path d="M868.2 79.9h7.4v44.6h-7.4z" id="path314" fill="#fff"/><path d="M898.8 83h10.8c13 0 19.9 7 19.9 20.8 0 14-8.3 20.8-19.9 20.8h-10.8zm7.6 35.7h2.6c8.6 0 12.4-5.8 12.4-14.9 0-9.1-3.9-14.9-12.4-14.9h-2.6z" id="path316" fill="#fff"/><path d="M957.8 123.1c-2.9 1.3-6 2-9.2 2-9.9 0-14.2-7.1-14.2-15.3 0-9.2 4.8-16.2 12.6-16.2 6.6 0 12.3 3.9 12.3 16.3v1.4h-17.7c0 5.2 2.1 8.4 7.8 8.4 4.5 0 6.7-1.4 8-2.4zm-5.6-16.5c0-5.4-1.8-8.1-5.1-8.1-3.9 0-5.5 4.1-5.5 8.1z" id="path318" fill="#fff"/><path d="M964.1 117.4c2.4 1.2 5 1.9 7.7 2 2.7 0 4.8-.7 4.8-3 0-1.2-.6-2.3-3.3-3.9l-3-1.8c-3.1-1.8-6.5-3.8-6.5-8.6 0-4.2 4.1-8.7 10.6-8.7 2.6 0 5.2.4 7.6 1.2l-.4 5.7c-2-.9-4.3-1.4-6.5-1.4-3 0-4.2 1.1-4.2 3 0 1.7 1.3 2.6 3.5 3.9l3.6 2.3c3.8 2.4 5.7 4.2 5.7 7.7 0 5.7-4.8 9-11.4 9-2.9 0-5.8-.5-8.5-1.5z" id="path320" fill="#fff"/><path d="M990.4 95.7c3-1.5 6.3-2.3 9.7-2.3 9.5 0 11.7 4.6 11.7 12.3v13.4c0 1.8.1 3.6.4 5.4h-6.7c-.3-1.4-.5-2.8-.4-4.2h-.1c-1.8 2.5-4.2 4.6-8.6 4.6-4.8 0-9.2-3.3-9.2-9 0-8.3 6.8-10.4 16.1-10.4h1.5v-1.1c0-3-1.5-5.8-5.7-5.8-3 .1-6 1.1-8.4 3zm14.6 13.9h-.7c-6.3 0-10 1.3-10 5.8-.1 2.4 1.7 4.5 4.2 4.7h.5c4.4 0 6-3.3 6-8.7z" id="path322" fill="#fff"/><path d="M1018.8 99c0-1.7-.1-3.3-.2-5h6.7c.1 1.8.2 3.7.2 5.6h.1c.9-2.4 3.2-6.1 7.8-6.1.4 0 .8.1 1.2.2v6.9c-.7-.2-1.4-.3-2.1-.3-3 0-6.4 1.8-6.4 7.6v16.8h-7.4z" id="path324" fill="#fff"/><path d="M1039.5 99c0-1.7-.1-3.3-.2-5h6.7c.1 1.8.2 3.7.2 5.6h.1c.9-2.4 3.2-6.1 7.8-6.1.4 0 .8.1 1.2.2v6.9c-.7-.2-1.4-.3-2.1-.3-3 0-6.4 1.8-6.4 7.6v16.8h-7.4z" id="path326" fill="#fff"/><path d="M1072.7 93.4c6.2 0 13.4 3.3 13.4 15.8 0 12.8-7.2 15.8-13.4 15.8s-13.5-3-13.5-15.8c0-12.5 7.2-15.8 13.5-15.8zm0 26.4c4.8 0 5.8-5.5 5.8-10.6s-1.1-10.5-5.8-10.5c-4.7 0-5.9 5.4-5.9 10.5s1.1 10.6 5.9 10.6z" id="path328" fill="#fff"/><path d="M1092.5 79.9h7.4v44.6h-7.4z" id="path330" fill="#fff"/><path d="M1107.8 79.9h7.4v44.6h-7.4z" id="path332" fill="#fff"/><path d="M1135 93.4c6.2 0 13.4 3.3 13.4 15.8 0 12.8-7.2 15.8-13.4 15.8s-13.5-3-13.5-15.8c0-12.5 7.3-15.8 13.5-15.8zm0 26.4c4.8 0 5.8-5.5 5.8-10.6s-1.1-10.5-5.8-10.5c-4.7 0-5.9 5.4-5.9 10.5s1.2 10.6 5.9 10.6z" id="path334" fill="#fff"/><path d="M500.4 256.6h5.6c6.8 0 10.4 3.7 10.4 10.8 0 7.1-4.3 10.8-10.4 10.8h-5.6zm4 18.6h1.3c4.5 0 6.5-3 6.5-7.8s-2-7.8-6.5-7.8h-1.3z" id="path336" fill="#fff"/><path d="M519.9 255.4h4v3.8h-4zm0 6.8h3.8v16h-3.8z" id="path338" fill="#fff"/><path d="M538.5 277.8c-1.2.4-2.5.7-3.8.6-5.3 0-7.5-3.7-7.5-8.2 0-4.5 2.4-8.2 7.7-8.2 1.1 0 2.3.3 3.3.6l-.2 3c-.8-.5-1.7-.7-2.7-.8-2.9 0-4.2 2-4.2 5.4 0 3 1.4 5.3 4.4 5.3 1 0 1.9-.3 2.7-.8z" id="path340" fill="#fff"/><path d="M541.1 255.4h4v3.8h-4zm.1 6.8h3.8v16h-3.8z" id="path342" fill="#fff"/><path d="M560.6 277.4c-1.5.7-3.1 1-4.8 1-5.2 0-7.4-3.7-7.4-8 0-4.8 2.5-8.5 6.6-8.5 3.4 0 6.4 2 6.4 8.5v.7h-9.2c0 2.7 1.1 4.4 4.1 4.4 1.5.1 3-.3 4.2-1.2zm-2.9-8.6c0-2.8-.9-4.2-2.7-4.2-2 0-2.8 2.1-2.8 4.2z" id="path344" fill="#fff"/><path d="M564.3 264.8c0-.9 0-1.7-.1-2.6h3.8c0 .8.1 1.7.1 2.5h.1c.7-1.6 2.2-2.7 4-2.8 1.7-.1 3.3.9 4 2.5.9-1.5 2.5-2.5 4.3-2.5 3.5 0 4.6 2.5 4.6 6.4v9.9h-3.8v-10.1c0-2-.6-3-2-3-1.7 0-2.6 1.6-2.6 3.4v9.7h-3.8v-10.1c0-2-.6-3-2-3-1.7 0-2.6 1.6-2.6 3.4v9.7h-3.9v-13.4z" id="path346" fill="#fff"/><path d="M592.4 254.9v9.6h.1c.7-1.6 2.4-2.6 4.1-2.5 3.4 0 5.5 3 5.5 8.2 0 4.4-1.6 8.2-5.6 8.2-1.9.1-3.6-1-4.2-2.7h-.1c0 .8 0 1.7-.1 2.5h-3.6c.1-.9.1-1.8.1-2.7V255h3.8zm3 20.7c2.2 0 2.8-1.9 2.8-5.6 0-3.2-.8-5.3-2.9-5.3-2.1 0-3 2.3-3 5.4 0 3.1.9 5.5 3.1 5.5z" id="path348" fill="#fff"/><path d="M605.3 264.9c0-.9 0-1.8-.1-2.6h3.5c0 1 .1 2 .1 2.9h.1a4.5 4.5 0 0 1 4.1-3.2c.2 0 .4 0 .7.1v3.6c-.4-.1-.7-.1-1.1-.1-1.6 0-3.3 1-3.3 3.9v8.7h-3.8v-13.3z" id="path350" fill="#fff"/><path d="M627.5 277.4c-1.5.7-3.1 1-4.8 1-5.1 0-7.4-3.7-7.4-8 0-4.8 2.5-8.5 6.6-8.5 3.4 0 6.4 2 6.4 8.5v.7H619c0 2.7 1.1 4.4 4.1 4.4 1.5.1 3-.3 4.2-1.2zm-2.9-8.6c0-2.8-.9-4.2-2.7-4.2-2 0-2.8 2.1-2.8 4.2z" id="path352" fill="#fff"/><path d="m639.5 275 1.6-1.8c3.2-3.6 6.5-7.3 6.5-10.5.2-1.6-1-3-2.6-3.2h-.4c-1.6 0-3.2.6-4.3 1.6l-.3-3.6c1.6-.9 3.5-1.3 5.4-1.2 4.6 0 6.2 2.6 6.2 5.8 0 3.9-3.3 8.2-6.9 12.2l-.8.8h7.9v3.2h-12.2V275Z" id="path354" fill="#fff"/><path d="M661.8 256.2c5.6 0 6.8 5.8 6.8 11.1s-1.2 11.1-6.8 11.1-6.8-5.8-6.8-11.1 1.2-11.1 6.8-11.1zm0 19.4c2.5 0 3-3.4 3-8.2 0-4.8-.5-8.2-3-8.2s-3 3.4-3 8.2c0 4.8.5 8.2 3 8.2z" id="path356" fill="#fff"/><path d="m671.8 275 1.6-1.8c3.2-3.6 6.5-7.3 6.5-10.5.2-1.6-1-3-2.6-3.2h-.4c-1.6 0-3.2.6-4.3 1.6l-.3-3.6c1.6-.9 3.5-1.3 5.4-1.2 4.6 0 6.2 2.6 6.2 5.8 0 3.9-3.3 8.2-6.9 12.2l-.8.8h7.9v3.2h-12.2V275Z" id="path358" fill="#fff"/><path d="m693.2 261.1-2.9 2.7-1.8-2.7 5.3-4.6h3.2v21.6h-3.8z" id="path360" fill="#fff"/><path d="M711.4 267.8h7.2v3.2h-7.2z" id="path362" fill="#fff"/><path d="M730.1 256.6h5.6c6.8 0 10.3 3.7 10.3 10.8 0 7.1-4.3 10.8-10.3 10.8h-5.6zm4 18.6h1.3c4.5 0 6.5-3 6.5-7.8s-2-7.8-6.5-7.8H734Z" id="path364" fill="#fff"/><path d="M749.5 255.4h4v3.8h-4zm.1 6.8h3.8v16h-3.8z" id="path366" fill="#fff"/><path d="M768.1 277.8c-1.2.4-2.5.7-3.8.6-5.3 0-7.5-3.7-7.5-8.2 0-4.5 2.3-8.2 7.7-8.2 1.1 0 2.3.3 3.3.6l-.2 3c-.8-.5-1.8-.7-2.7-.8-2.9 0-4.2 2-4.2 5.4 0 3 1.4 5.3 4.4 5.3 1 0 1.9-.3 2.7-.8z" id="path368" fill="#fff"/><path d="M770.8 255.4h4v3.8h-4zm0 6.8h3.8v16h-3.8z" id="path370" fill="#fff"/><path d="M790.3 277.4c-1.5.7-3.1 1-4.8 1-5.1 0-7.4-3.7-7.4-8 0-4.8 2.5-8.5 6.6-8.5 3.4 0 6.4 2 6.4 8.5v.7h-9.2c0 2.7 1.1 4.4 4.1 4.4 1.5.1 3-.3 4.2-1.2zm-3-8.6c0-2.8-.9-4.2-2.7-4.2-2 0-2.9 2.1-2.9 4.2z" id="path372" fill="#fff"/><path d="M793.9 264.8c0-.9 0-1.7-.1-2.6h3.8c0 .8.1 1.7.1 2.5h.1c.7-1.6 2.2-2.7 4-2.8 1.7-.1 3.3.9 4 2.5.9-1.5 2.5-2.5 4.3-2.5 3.5 0 4.6 2.5 4.6 6.4v9.9h-3.8v-10.1c0-2-.6-3-2-3-1.7 0-2.6 1.6-2.6 3.4v9.7h-3.8v-10.1c0-2-.6-3-2-3-1.7 0-2.6 1.6-2.6 3.4v9.7h-3.8z" id="path374" fill="#fff"/><path d="M822.1 254.9v9.6h.1c.7-1.6 2.4-2.6 4.1-2.5 3.4 0 5.5 3 5.5 8.2 0 4.4-1.7 8.2-5.6 8.2-1.9.1-3.6-1-4.2-2.7h-.1c0 .8 0 1.7-.1 2.5h-3.6c.1-.9.2-1.8.1-2.7V255h3.8zm3 20.7c2.2 0 2.8-1.9 2.8-5.6 0-3.2-.7-5.3-2.9-5.3s-3 2.3-3 5.4c0 3.1.8 5.5 3.1 5.5z" id="path376" fill="#fff"/><path d="M834.9 264.9c0-.9 0-1.8-.1-2.6h3.5c0 1 .1 2 .1 2.9h.1a4.5 4.5 0 0 1 4.1-3.2c.2 0 .4 0 .7.1v3.6c-.4-.1-.7-.1-1.1-.1-1.6 0-3.3 1-3.3 3.9v8.7h-3.8z" id="path378" fill="#fff"/><path d="M857.1 277.4c-1.5.7-3.1 1-4.8 1-5.2 0-7.4-3.7-7.4-8 0-4.8 2.5-8.5 6.6-8.5 3.4 0 6.4 2 6.4 8.5v.7h-9.2c0 2.7 1.1 4.4 4.1 4.4 1.5.1 3-.3 4.2-1.2zm-2.9-8.6c0-2.8-.9-4.2-2.7-4.2-2 0-2.8 2.1-2.8 4.2z" id="path380" fill="#fff"/><path d="m869.2 275 1.6-1.8c3.2-3.6 6.5-7.3 6.5-10.5.2-1.6-1-3-2.6-3.2h-.4c-1.6 0-3.2.6-4.3 1.6l-.3-3.6c1.6-.9 3.5-1.3 5.4-1.2 4.6 0 6.2 2.6 6.2 5.8 0 3.9-3.3 8.2-6.9 12.2l-.8.8h7.9v3.2h-12.3z" id="path382" fill="#fff"/><path d="M891.4 256.2c5.6 0 6.8 5.8 6.8 11.1s-1.2 11.1-6.8 11.1-6.8-5.8-6.8-11.1 1.2-11.1 6.8-11.1zm0 19.4c2.5 0 3-3.4 3-8.2 0-4.8-.5-8.2-3-8.2s-3 3.4-3 8.2c0 4.8.6 8.2 3 8.2z" id="path384" fill="#fff"/><path d="m901.4 275 1.6-1.8c3.2-3.6 6.5-7.3 6.5-10.5.2-1.6-1-3-2.6-3.2h-.4c-1.6 0-3.2.6-4.3 1.6l-.3-3.6c1.6-.9 3.5-1.3 5.4-1.2 4.6 0 6.2 2.6 6.2 5.8 0 3.9-3.3 8.2-6.9 12.2l-.8.8h7.9v3.2h-12.3z" id="path386" fill="#fff"/><path d="M926.1 259.7h-8.6v-3.2h12.3v3.4l-6.5 18.2H919Z" id="path388" fill="#fff"/><path d="M514 172.3h-8.9l-1.9 6.2h-4.7l8.7-25.8h5.2l8.3 25.8h-4.9zm-1-3.7-3.3-12.1h-.1l-3.5 12.1z" id="path390" fill="#fff"/><path d="M539.2 177.9c-1.8.7-3.7 1-5.6.9-7.8 0-11.9-5.7-11.9-13.3 0-7.6 4-13.3 11.7-13.3 2 0 3.9.4 5.7 1.1l-.3 4.2c-1.5-.9-3.2-1.4-4.9-1.4-3.9 0-7.3 2.7-7.3 9.4s3.4 9.4 7.3 9.4c1.7.1 3.4-.4 4.9-1.3z" id="path392" fill="#fff"/><path d="M543.1 152.6h8.1c4.6 0 7.7 2.1 7.7 6.8.2 3-2 5.7-5 6.1v.1c1 .1 2 .6 2.8 3l3.4 9.8h-5l-2.5-8.4c-.3-1.7-1.9-2.8-3.6-2.7h-1.1v11.1h-4.7zm6.6 11.3c2.5 0 4.2-1.3 4.2-3.9 0-3-1.5-3.7-4.2-3.7h-1.9v7.6z" id="path394" fill="#fff"/><path d="M563.9 152.6h13.6v3.8h-8.9v6.9h8.4v3.8h-8.4v7.6h9.2v3.8h-14z" id="path396" fill="#fff"/><path d="M582.1 152.6h6.7c8.1 0 12.4 4.4 12.4 12.9s-5.2 12.9-12.4 12.9h-6.7zm4.8 22.3h1.6c5.3 0 7.7-3.6 7.7-9.3 0-5.7-2.4-9.3-7.7-9.3h-1.6z" id="path398" fill="#fff"/><path d="M605.7 152.6h4.7v25.8h-4.7z" id="path400" fill="#fff"/><path d="M619.8 156.4H614v-3.8h16.2v3.8h-5.7v22h-4.7z" id="path402" fill="#fff"/><path d="M643.9 172.3H635l-1.8 6.2h-4.7l8.7-25.8h5.2l8.3 25.8h-4.9zm-1-3.7-3.3-12.1h-.1l-3.6 12.1z" id="path404" fill="#fff"/><path d="M653.4 152.6h6.7c8.1 0 12.4 4.4 12.4 12.9s-5.2 12.9-12.4 12.9h-6.7zm4.7 22.3h1.6c5.3 0 7.7-3.6 7.7-9.3 0-5.7-2.4-9.3-7.7-9.3h-1.6z" id="path406" fill="#fff"/><path d="M688.5 172.3h-8.9l-1.8 6.2H673l8.7-25.8h5.2l8.3 25.8h-4.9zm-1-3.7-3.2-12.1h-.1l-3.5 12.1z" id="path408" fill="#fff"/><path d="M707.8 152.6h13.6v3.8h-8.8v6.9h8.4v3.8h-8.4v7.6h9.2v3.8h-14z" id="path410" fill="#fff"/><path d="M726.2 152.6h5.6l8.6 20.3h.1v-20.3h4.3v25.8h-5.7l-8.5-20.1h-.1v20.1h-4.3z" id="path412" fill="#fff"/><path d="M761.6 156.4h-5.8v-3.8H772v3.8h-5.7v22h-4.7z" id="path414" fill="#fff"/><path d="M783.2 152.3c5.4 0 10.3 4 10.3 13.3s-4.9 13.3-10.3 13.3-10.3-4-10.3-13.3 4.9-13.3 10.3-13.3zm0 22.9c3 0 5.4-2.6 5.4-9.7s-2.4-9.7-5.4-9.7c-3 0-5.4 2.6-5.4 9.7s2.4 9.7 5.4 9.7z" id="path416" fill="#fff"/><path d="M797.7 152.6h6.7c8.1 0 12.4 4.4 12.4 12.9s-5.2 12.9-12.4 12.9h-6.7zm4.7 22.3h1.6c5.3 0 7.7-3.6 7.7-9.3 0-5.7-2.4-9.3-7.7-9.3h-1.6z" id="path418" fill="#fff"/><path d="M832.8 172.3h-8.9l-1.8 6.2h-4.7l8.6-25.8h5.2l8.3 25.8h-4.9zm-1-3.7-3.3-12.1h-.1l-3.5 12.1z" id="path420" fill="#fff"/><path d="M842.1 173.5c1.6 1 3.5 1.6 5.5 1.6 2.1 0 3.9-1.1 3.9-3.7 0-1.9-1.1-2.7-3.4-3.9l-2.4-1.3a7.27 7.27 0 0 1-4.2-6.8c0-4.6 3.8-7 8.1-7 1.8 0 3.7.3 5.4.9l-.2 4c-1.5-.7-3.2-1.1-4.8-1.1-2.4 0-3.6 1.3-3.6 3 0 1.9 1.3 2.7 2.7 3.5l2.8 1.6c3 1.7 4.5 3.3 4.5 7 0 5.3-3.7 7.8-8.7 7.8-2 .1-4.1-.3-5.9-1.1z" id="path422" fill="#fff"/><path d="M870.4 152.6h4.7v22.1h8.5v3.8h-13.2z" id="path424" fill="#fff"/><path d="M900 172.3h-8.9l-1.8 6.2h-4.8l8.7-25.8h5.2l8.3 25.8h-4.9zm-1-3.7-3.2-12.1h-.1l-3.5 12.1z" id="path426" fill="#fff"/><path d="M909.3 173.5c1.6 1 3.5 1.6 5.5 1.6 2.1 0 3.9-1.1 3.9-3.7 0-1.9-1.1-2.7-3.4-3.9l-2.4-1.3a7.27 7.27 0 0 1-4.2-6.8c0-4.6 3.8-7 8.1-7 1.8 0 3.7.3 5.4.9l-.2 4c-1.5-.7-3.2-1.1-4.8-1.1-2.4 0-3.6 1.3-3.6 3 0 1.9 1.3 2.7 2.7 3.5l2.8 1.6c3 1.7 4.5 3.3 4.5 7 0 5.3-3.7 7.8-8.7 7.8-2 .1-4.1-.3-5.9-1.2z" id="path428" fill="#fff"/><path d="M948.7 172.3h-8.9l-1.8 6.2h-4.7l8.7-25.8h5.1l8.3 25.8h-4.9zm-1-3.7-3.3-12.1h-.1l-3.5 12.1zm-3.2-22.5h4.3l-3.8 5.3h-2.9z" id="path430" fill="#fff"/><path d="M958.1 152.6h8.1c4.6 0 7.7 2.1 7.7 6.8.2 3-2 5.7-5 6.1v.1c1 .1 2 .6 2.8 3l3.4 9.8h-5l-2.5-8.4c-.3-1.7-1.9-2.8-3.6-2.7h-1.1v11.1h-4.8zm6.7 11.3c2.5 0 4.2-1.3 4.2-3.9 0-3-1.6-3.7-4.2-3.7h-1.9v7.6z" id="path432" fill="#fff"/><path d="M978.9 152.6h13.6v3.8h-8.8v6.9h8.4v3.8h-8.4v7.6h9.2v3.8h-14z" id="path434" fill="#fff"/><path d="M1010.3 172.3h-8.9l-1.8 6.2h-4.7l8.7-25.8h5.2l8.3 25.8h-4.9zm-1-3.7-3.2-12.1h-.1l-3.5 12.1z" id="path436" fill="#fff"/><path d="M1019.7 173.5c1.6 1 3.5 1.6 5.5 1.6 2.1 0 3.9-1.1 3.9-3.7 0-1.9-1.1-2.7-3.4-3.9l-2.4-1.3a7.27 7.27 0 0 1-4.2-6.8c0-4.6 3.8-7 8.1-7 1.8 0 3.7.3 5.4.9l-.2 4c-1.5-.7-3.2-1.1-4.8-1.1-2.4 0-3.6 1.3-3.6 3 0 1.9 1.3 2.7 2.7 3.5l2.8 1.6c3 1.7 4.5 3.3 4.5 7 0 5.3-3.7 7.8-8.7 7.8-2 .1-4.1-.3-5.9-1.1z" id="path438" fill="#fff"/><path d="M501.4 203.1h10.7l10.7 21.5h.1l-.1-21.5h7.7v31.6H520l-11-21.6h-.1l.3 21.6h-7.8z" id="path440" fill="#fff"/><path d="M536.9 203.1h8.4v31.6h-8.4z" id="path442" fill="#fff"/><path d="M549.1 203.1h9l7 24.8h.1l7.1-24.8h8.7l-10.8 31.6h-10.4z" id="path444" fill="#fff"/><path d="M584.1 203.1h22.3v6h-13.9v6.5h13.1v6h-13.1v7.1h14.4v6h-22.8z" id="path446" fill="#fff"/><path d="M612 203.1h8.4v25.4h13v6.2H612Z" id="path448" fill="#fff"/><path d="M650.8 203.1h22.3v6h-13.9v6.5h13.1v6h-13.1v7.1h14.4v6h-22.8z" id="path450" fill="#fff"/><path d="m686.5 218.1-9.2-15h9.8l5.3 10.4 5.4-10.4h9.2l-9.2 15 10.2 16.6h-10l-6.1-11.6-6.1 11.6h-9.6z" id="path452" fill="#fff"/><path d="M737.8 234.1c-3.1.8-6.2 1.3-9.4 1.3-8.4 0-18.2-4.3-18.2-16.2 0-11 7.7-16.5 18.1-16.5 3.2.1 6.3.6 9.4 1.6l-.7 6.8c-2.5-1.5-5.3-2.2-8.2-2.2-6 0-9.9 4.4-9.9 10.2 0 6.2 4.4 10 10.6 10 2.7-.1 5.4-.6 7.9-1.6z" id="path454" fill="#fff"/><path d="M741.5 203.1h22.3v6h-13.9v6.5H763v6h-13.1v7.1h14.4v6h-22.8z" id="path456" fill="#fff"/><path d="M769.4 203.1h8.4v25.4h13v6.2h-21.5v-31.6z" id="path458" fill="#fff"/><path d="M794.3 203.1h22.3v6h-13.9v6.5h13.1v6h-13.1v7.1h14.4v6h-22.8z" id="path460" fill="#fff"/><path d="M822.4 203.1h10.7l10.7 21.5h.1l-.1-21.5h7.7v31.6H841l-11-21.6h-.1l.3 21.6h-7.7z" id="path462" fill="#fff"/><path d="M883.9 234.1c-3.1.8-6.2 1.3-9.4 1.3-8.4 0-18.2-4.3-18.2-16.2 0-11 7.7-16.5 18.1-16.5 3.2.1 6.3.6 9.4 1.6l-.7 6.8c-2.5-1.4-5.4-2.2-8.2-2.2-6 0-9.9 4.4-9.9 10.2 0 6.2 4.4 10 10.5 10 2.7-.1 5.4-.6 7.9-1.6z" id="path464" fill="#fff"/><path d="M888.1 203.1h8.4v31.6h-8.4z" id="path466" fill="#fff"/><path d="M912.3 203.1h10.3l12.2 31.6h-9.2l-2.4-6.8h-11.9l-2.5 6.8h-8.6zm5.1 6.6-4.2 12.3h7.9z" id="path468" fill="#fff"/></g></svg>