<svg xmlns="http://www.w3.org/2000/svg" xmlns:xlink="http://www.w3.org/1999/xlink" width="139" height="45" viewBox="0 0 139 45"><defs><path id="a1sqa" d="M110.637 35.064v-.052c0-2.492-2.151-4.512-4.806-4.512-2.654 0-4.806 2.02-4.806 4.512 0 2.49 2.153 4.51 4.806 4.51.992 0 1.914-.282 2.68-.765v5.437a10.8 10.8 0 0 1-2.68.335 10.73 10.73 0 0 1-3.59-.613 8.963 8.963 0 0 1 .746 3.588c0 5.258-4.539 9.518-10.14 9.518-5.6 0-10.139-4.262-10.139-9.518 0-1.228.247-2.402.7-3.48a10.707 10.707 0 0 1-3.268.505c-5.6 0-10.14-4.26-10.14-9.519 0-5.256 4.54-9.517 10.14-9.516 1.143 0 2.242.177 3.267.504a8.971 8.971 0 0 1-.7-3.48c0-5.256 4.54-9.518 10.14-9.518 5.601 0 10.14 4.262 10.14 9.518 0 1.27-.264 2.482-.746 3.59a10.72 10.72 0 0 1 3.59-.614c5.601 0 10.14 4.261 10.14 9.518v.052l.007 9.46h-5.372v-9.46zm-17.88-17.103c-2.655 0-4.806 2.02-4.806 4.51 0 .737.188 1.432.52 2.045l-.059.038 5.861 8.157h.058l.034.046 2.487-.02-4.134-5.71.13.002c2.653 0 4.805-2.02 4.805-4.51 0-1.73-1.037-3.23-2.559-3.987a5.025 5.025 0 0 0-2.338-.571zm.33 34.196c2.653 0 4.805-2.02 4.805-4.511a4.336 4.336 0 0 0-1.177-2.958L89.5 33.858h-4.517c-.593-1.86-2.43-3.216-4.604-3.216-2.655 0-4.806 2.02-4.805 4.51 0 2.492 2.15 4.511 4.805 4.511 2.428 0 4.434-1.688 4.76-3.882h3.23l4.9 7.357a4.747 4.747 0 0 0-.182-.003c-2.654 0-4.806 2.02-4.806 4.51 0 2.493 2.152 4.512 4.806 4.512z"/><path id="a1sqb" d="M127.23 13.98v44.022"/><path id="a1sqc" d="M138.48 35.182c0 3.844 2.305 11.076 11.852 11.076h11.62l.006-18.63h-5.125c0 4.147.005 13.898.005 13.898h-6.088c-4.015 0-6.228-1.782-6.854-4.513-.209-.96-.286-1.644-.286-4.021l-.004-10.212h-5.126z"/><path id="a1sqd" d="M203.417 41.528h-14.07c-.011-.095-.031-.189-.045-.283V27.919c5.53 0 12.853 3.773 14.115 13.609m-19.267 0h-14.104V27.919c5.525 0 12.844 3.773 14.104 13.609m24.762 4.46c0-11.109-5.067-24.016-24.753-23.168v6.577c-3.77-4.208-9.824-6.984-19.269-6.577v23.433l24.415.005.036-.004 19.232.004s.143 0 .23-.067c.099-.078.109-.203.109-.203"/></defs><g><g transform="translate(-70 -13)"><use fill="#fff" xlink:href="#a1sqa"/></g><g transform="translate(-70 -13)"><use fill="#fff" fill-opacity="0" stroke="#fff" stroke-miterlimit="50" stroke-width="1.02" xlink:href="#a1sqb"/></g><g transform="translate(-70 -13)"><use fill="#fff" xlink:href="#a1sqc"/></g><g transform="translate(-70 -13)"><use fill="#fff" xlink:href="#a1sqd"/></g></g></svg>